<svg width="102" height="101" viewBox="0 0 102 101" fill="none" xmlns="http://www.w3.org/2000/svg">
<path d="M49.6658 25.6003C48.2939 25.6003 47.1804 26.6992 47.1804 28.0533V50.2772L34.0766 59.8391C32.9731 60.6437 32.7394 62.1793 33.5547 63.2685C34.0418 63.921 34.7925 64.2644 35.553 64.2644C36.065 64.2644 36.582 64.1074 37.0294 63.7836L51.1474 53.4859C51.7837 53.0247 52.1565 52.2888 52.1565 51.5137L52.1516 28.0526C52.1516 26.6986 51.0428 25.6003 49.6658 25.6003Z" fill="white"/>
<path d="M101.334 21.8865C101.334 10.112 91.6256 0.525391 79.695 0.525391C74.555 0.525391 69.8326 2.30632 66.1141 5.26947C60.8399 3.43956 55.322 2.5025 49.6648 2.5025C22.2891 2.5025 0.0189694 24.4765 0.00497101 51.4894C0.00497101 51.4992 0 51.5041 0 51.5139C0 51.5238 3.18221e-07 51.5287 0.00497101 51.5385C0.0198843 78.5514 22.2903 100.525 49.6648 100.525C77.0455 100.525 99.3246 78.5363 99.3246 51.5146C99.3246 45.9414 98.3751 40.4908 96.5259 35.2853C99.5284 31.6204 101.334 26.9594 101.334 21.8865ZM70.3403 21.1065C71.26 20.1007 72.8308 20.0222 73.8498 20.9299L78.9949 25.5071L84.274 14.9101C84.8805 13.6934 86.3668 13.193 87.5997 13.7915C88.8325 14.3901 89.3395 15.8569 88.733 17.0737L82.0023 30.5852C81.6593 31.2769 81.008 31.7675 80.2425 31.9098C80.0884 31.9392 79.9294 31.954 79.7753 31.954C79.1638 31.954 78.5723 31.7332 78.11 31.3211L70.5243 24.5655C69.5052 23.6628 69.4207 22.1122 70.3403 21.1065ZM52.1514 95.5501V88.7652C52.1514 87.4111 51.0379 86.3122 49.6659 86.3122C48.2939 86.3122 47.1804 87.4111 47.1804 88.7652V95.5501C24.5133 94.3187 6.29888 76.3379 5.05176 53.9721H11.9266C13.2986 53.9721 14.4121 52.8731 14.4121 51.5191C14.4121 50.165 13.2986 49.0661 11.9266 49.0661H5.05176C6.29948 26.6952 24.5133 8.71882 47.1804 7.48799V14.273C47.1804 15.627 48.2939 16.726 49.6659 16.726C51.0379 16.726 52.1514 15.627 52.1514 14.273V7.48799C55.6062 7.67442 58.9964 8.24843 62.2872 9.20512C59.6227 12.7571 58.042 17.1431 58.042 21.8877C58.042 33.6671 67.7504 43.2488 79.686 43.2488C84.4929 43.2488 88.937 41.6936 92.5365 39.064C93.5058 42.3117 94.0875 45.6577 94.2764 49.0673H87.4065C86.0345 49.0673 84.921 50.1663 84.921 51.5203C84.921 52.8744 86.0345 53.9733 87.4065 53.9733H94.2813C93.0336 76.3405 74.8198 94.3206 52.1526 95.5514L52.1514 95.5501Z" fill="white"/>
</svg>
