<svg width="99" height="89" viewBox="0 0 99 89" fill="none" xmlns="http://www.w3.org/2000/svg">
<path d="M82.7761 47.9434C84.2084 44.1297 85.0301 40.0271 85.0301 35.7254C85.0301 16.3168 69.076 0.525391 49.4676 0.525391C29.8591 0.525391 13.9051 16.3168 13.9051 35.7254C13.9051 40.0247 14.7267 44.1297 16.159 47.9434L0.629214 65.0069C0.0381404 65.6575 -0.153161 66.5727 0.126434 67.4005C0.406028 68.2283 1.11483 68.8474 1.98304 69.0125L17.4123 71.9887L22.0084 86.8091C22.2659 87.6466 22.9625 88.2778 23.8233 88.4696C23.9999 88.5084 24.1789 88.5254 24.3531 88.5254C25.0398 88.5254 25.7069 88.2389 26.1753 87.7219L42.1343 70.1631C44.5035 70.6559 46.9537 70.9254 49.4676 70.9254C51.9815 70.9254 54.434 70.6584 56.8008 70.1631L72.7598 87.7219C73.2282 88.2389 73.8953 88.5254 74.582 88.5254C74.7562 88.5254 74.9352 88.506 75.1118 88.4696C75.9751 88.2802 76.6692 87.6466 76.9267 86.8091L81.5229 71.9887L96.9521 69.0125C97.8203 68.8474 98.5291 68.2308 98.8087 67.4005C99.0883 66.5703 98.897 65.6551 98.3059 65.0069L82.7761 47.9434ZM25.4249 81.2888L21.6699 69.1727C21.4051 68.3133 20.684 67.6724 19.7937 67.5025L7.17271 65.0701L18.3712 52.767C22.4401 60.011 29.0203 65.6648 36.9348 68.6289L25.4249 81.2888ZM18.8102 35.7254C18.8102 18.992 32.5619 5.38056 49.4676 5.38056C66.3732 5.38056 80.1249 18.992 80.1249 35.7254C80.1249 52.4587 66.3732 66.0702 49.4676 66.0702C32.5619 66.0702 18.8102 52.4587 18.8102 35.7254ZM79.1414 67.5001C78.2536 67.67 77.5325 68.3133 77.2652 69.1702L73.5103 81.2863L62.0003 68.624C69.9148 65.66 76.4951 60.0061 80.5639 52.7622L91.7624 65.0652L79.1414 67.5001Z" fill="white"/>
<path d="M72.476 28.9669C71.8653 27.1049 70.1264 25.8571 68.1496 25.8571H57.1792L53.7897 15.5326C53.179 13.6706 51.4426 12.4229 49.4658 12.4229C47.489 12.4229 45.7501 13.6731 45.1419 15.5326L41.7524 25.8571H30.782C28.8052 25.8571 27.0663 27.1073 26.4556 28.9669C25.8474 30.8288 26.5096 32.851 28.1087 33.9944L36.9846 40.3789L33.5927 50.701C32.982 52.563 33.6442 54.5876 35.2457 55.7358C36.0428 56.3088 36.9797 56.5952 37.9166 56.5952C38.8535 56.5952 39.7903 56.3088 40.5899 55.7334L49.4633 49.3513L58.3368 55.7334C59.9359 56.8865 62.0844 56.8841 63.681 55.7334C65.2801 54.5827 65.9447 52.5581 65.334 50.6986L61.9421 40.3765L70.8156 33.9944C72.4146 32.8461 73.0793 30.824 72.4711 28.9644L72.476 28.9669ZM58.8543 36.604C57.2577 37.7523 56.593 39.7745 57.2013 41.6364L60.3308 51.1647L52.1342 45.2705C50.5376 44.1223 48.3916 44.1271 46.7925 45.2754L38.6008 51.1647L41.7303 41.634C42.3386 39.772 41.6764 37.7499 40.0773 36.604L31.8857 30.7123H42.0099C43.9867 30.7123 45.7256 29.4621 46.3363 27.6025L49.4633 18.0743L52.5904 27.605C53.2011 29.4645 54.94 30.7123 56.9168 30.7123H67.041L58.8494 36.604H58.8543Z" fill="white"/>
</svg>
