<svg width="89" height="103" viewBox="0 0 89 103" fill="none" xmlns="http://www.w3.org/2000/svg">
<path d="M88.303 70.7858L86.1281 68.6327C85.8708 68.3783 85.5221 68.2352 85.1585 68.2349H82.0701C81.5856 66.5122 80.8939 64.8533 80.0096 63.294L82.1846 61.1409C82.4416 60.8862 82.586 60.541 82.5864 60.181V57.119C82.586 56.759 82.4416 56.4139 82.1846 56.1592L78.5284 52.5408C78.2711 52.2864 77.9225 52.1433 77.5588 52.143H74.4773C74.1138 52.143 73.7652 52.2856 73.5077 52.5396L71.327 54.6928C69.7527 53.8177 68.0778 53.1332 66.3384 52.6541V49.5944C66.3381 49.2344 66.1936 48.8892 65.9366 48.6345L63.7617 46.4814C63.6738 46.3927 63.5741 46.3164 63.4652 46.2547C64.5262 43.6134 65.0701 40.7963 65.0678 37.9538C65.0689 24.7539 53.401 14.0109 39.0578 14.0109C24.7147 14.0109 13.0455 24.7539 13.0455 37.9595C13.0509 42.8621 14.6619 47.6309 17.6369 51.5503C22.2432 57.6936 22.4676 62.0894 22.4676 69.3217V74.5901C22.4706 76.3441 23.1753 78.0255 24.4275 79.2665C25.6797 80.5074 27.3775 81.2068 29.1492 81.2115V83.9313C29.1517 85.3708 29.7304 86.7507 30.7586 87.7686C31.7868 88.7865 33.1806 89.3594 34.6347 89.3618H37.8192V91.4832C37.8196 91.8432 37.9641 92.1883 38.221 92.443L41.8841 96.0694C42.1415 96.3233 42.4902 96.466 42.8537 96.466H45.9352C46.1151 96.4661 46.2933 96.431 46.4595 96.3627C46.6257 96.2944 46.7766 96.1944 46.9036 96.0682L49.0843 93.9151C50.6584 94.7908 52.3333 95.4757 54.0729 95.9549V99.0146C54.0732 99.3746 54.2177 99.7198 54.4747 99.9745L56.6496 102.128C56.7767 102.254 56.9276 102.354 57.0938 102.422C57.26 102.49 57.4381 102.525 57.6181 102.525H62.7898C63.1535 102.525 63.5021 102.382 63.7594 102.128L65.9343 99.9745C66.1913 99.7198 66.3358 99.3746 66.3361 99.0146V95.9436C68.0758 95.4637 69.7511 94.7789 71.3259 93.9038L73.5008 96.0569C73.7583 96.3109 74.1069 96.4535 74.4704 96.4535H77.5519C77.9154 96.4535 78.2641 96.3109 78.5215 96.0569L82.1777 92.4305C82.4347 92.1759 82.5792 91.8307 82.5795 91.4707V88.4314C82.5796 88.2533 82.5441 88.0769 82.4752 87.9124C82.4062 87.7478 82.3051 87.5984 82.1777 87.4727L80.0039 85.3139C80.8885 83.7555 81.5803 82.0973 82.0644 80.3752H85.1494C85.513 80.3749 85.8617 80.2319 86.1189 79.9775L88.2939 77.8243C88.5508 77.5696 88.6953 77.2245 88.6956 76.8645V71.7411C88.6966 71.384 88.5555 71.0409 88.303 70.7858ZM19.8382 49.9343C17.216 46.4816 15.7949 42.2804 15.7883 37.9606C15.7883 26.2498 26.2268 16.7306 39.0578 16.7306C51.8888 16.7306 62.3274 26.2498 62.3274 37.9595C62.3205 42.2797 60.8991 46.4814 58.2763 49.9343C54.944 54.1407 53.092 59.3101 53.0026 64.655C52.9888 64.7442 52.9842 64.8346 52.9889 64.9247C52.9419 65.8993 52.919 66.9079 52.911 67.9641H44.2216V49.3031H46.3668C47.3336 49.3033 48.2788 49.0197 49.0828 48.4881C49.8867 47.9565 50.5134 47.2007 50.8835 46.3165C51.2536 45.4323 51.3505 44.4592 51.1619 43.5205C50.9734 42.5817 50.5078 41.7194 49.8242 41.0426C49.1405 40.3658 48.2695 39.9049 47.3212 39.7182C46.3729 39.5316 45.39 39.6275 44.4969 39.9939C43.6037 40.3603 42.8403 40.9806 42.3033 41.7766C41.7663 42.5725 41.4798 43.5082 41.48 44.4654V46.5879H36.6356V44.4665C36.6358 43.5094 36.3494 42.5737 35.8124 41.7778C35.2755 40.9819 34.5122 40.3615 33.619 39.9951C32.7259 39.6287 31.7431 39.5327 30.7948 39.7193C29.8466 39.9059 28.9756 40.3666 28.2919 41.0433C27.6082 41.72 27.1425 42.5822 26.9538 43.5209C26.7651 44.4596 26.8619 45.4326 27.2318 46.3169C27.6017 47.2011 28.2282 47.9569 29.032 48.4887C29.8359 49.0204 30.7809 49.3043 31.7477 49.3043H33.8941V67.9641H25.2046C25.1485 61.0899 24.5441 56.2079 19.8382 49.9343ZM55.648 74.5901V69.3217C55.648 68.0185 55.656 66.8093 55.695 65.6647C57.3519 64.8188 59.2181 64.4578 61.0748 64.6238C62.9316 64.7898 64.7022 65.4761 66.1792 66.6022C67.6563 67.7283 68.7788 69.2477 69.4152 70.9825C70.0516 72.7172 70.1756 74.5956 69.7727 76.3976C69.3699 78.1997 68.4568 79.8508 67.1404 81.1577C65.8239 82.4646 64.1587 83.3732 62.3395 83.7771C60.5204 84.181 58.6227 84.0635 56.8686 83.4383C55.1144 82.8132 53.5765 81.7063 52.4348 80.2472C53.4155 79.6561 54.2261 78.8254 54.7888 77.8347C55.3515 76.844 55.6474 75.7267 55.648 74.5901ZM36.6356 67.9641V49.3031H41.48V67.9641H36.6356ZM44.2216 44.4642C44.2216 44.044 44.3475 43.6332 44.5833 43.2837C44.8191 42.9343 45.1543 42.662 45.5465 42.5011C45.9387 42.3403 46.3703 42.2982 46.7866 42.3802C47.203 42.4622 47.5854 42.6646 47.8856 42.9618C48.1857 43.2589 48.3902 43.6375 48.473 44.0497C48.5558 44.4619 48.5133 44.8891 48.3508 45.2773C48.1884 45.6656 47.9133 45.9975 47.5603 46.2309C47.2074 46.4644 46.7924 46.589 46.3679 46.589H44.2216V44.4642ZM31.7443 46.589C31.3198 46.589 30.9048 46.4644 30.5519 46.2309C30.1989 45.9975 29.9238 45.6656 29.7614 45.2773C29.5989 44.8891 29.5564 44.4619 29.6392 44.0497C29.722 43.6375 29.9264 43.2589 30.2266 42.9618C30.5268 42.6646 30.9092 42.4622 31.3256 42.3802C31.7419 42.2982 32.1735 42.3403 32.5657 42.5011C32.9578 42.662 33.2931 42.9343 33.5289 43.2837C33.7647 43.6332 33.8906 44.044 33.8906 44.4642V46.5879L31.7443 46.589ZM25.2092 74.5901V70.6793H52.911V74.5901C52.9098 75.6267 52.4934 76.6206 51.7531 77.3537C51.0127 78.0868 50.0089 78.4994 48.9618 78.5009H29.1595C28.1122 78.4997 27.1081 78.0872 26.3675 77.3541C25.627 76.6209 25.2104 75.6269 25.2092 74.5901ZM31.8908 83.9313V81.2115H46.2294V83.9313C46.2294 84.6526 45.9399 85.3444 45.4247 85.8545C44.9095 86.3645 44.2107 86.6511 43.4821 86.6511H34.6347C33.9066 86.6502 33.2087 86.3632 32.6943 85.8533C32.1798 85.3433 31.8908 84.652 31.8908 83.9313ZM85.9621 76.2979L84.5884 77.6577H81.0044C80.6931 77.6584 80.3913 77.7637 80.1483 77.9564C79.9054 78.1491 79.7358 78.4178 79.6674 78.7184C79.1708 80.8756 78.3097 82.9342 77.1204 84.8073C76.9556 85.0678 76.8848 85.3758 76.9195 85.6812C76.9543 85.9866 77.0924 86.2713 77.3116 86.489L79.8448 88.9969V90.9233L76.9911 93.7451H75.0451L72.5141 91.2384C72.2942 91.0215 72.0066 90.8847 71.6981 90.8503C71.3896 90.8159 71.0785 90.886 70.8154 91.0491C68.9213 92.2265 66.8399 93.0786 64.6591 93.5695C64.3567 93.6383 64.0868 93.8065 63.8933 94.0467C63.6997 94.2868 63.5941 94.5847 63.5934 94.8919V98.4367L62.2198 99.7966H58.1858L56.8122 98.4367V94.8897C56.8117 94.5821 56.706 94.2838 56.5123 94.0434C56.3185 93.803 56.0481 93.6347 55.7453 93.566C53.5661 93.0754 51.4865 92.2228 49.5948 91.0446C49.3317 90.8815 49.0206 90.8114 48.7121 90.8458C48.4036 90.8801 48.116 91.0169 47.8961 91.2339L45.3606 93.7451H43.4146L40.5608 90.92V89.3606H43.4821C44.9356 89.3576 46.3287 88.7846 47.3563 87.767C48.384 86.7495 48.9625 85.3702 48.9652 83.9313V81.2115C49.2208 81.2102 49.476 81.1951 49.7299 81.1662C50.2631 81.9605 50.8864 82.6917 51.5877 83.3454C53.9111 85.5268 56.9927 86.7403 60.1948 86.7349C60.3218 86.7349 60.4478 86.7349 60.5748 86.7349C62.391 86.679 64.1732 86.2337 65.7987 85.4298C67.4241 84.6258 68.854 83.4823 69.9896 82.0781C71.1253 80.674 71.9398 79.0426 72.3767 77.2966C72.8137 75.5506 72.8629 73.7315 72.5208 71.9649C72.1787 70.1983 71.4536 68.5261 70.3953 67.0639C69.3371 65.6016 67.971 64.3841 66.3914 63.4952C64.8117 62.6064 63.056 62.0674 61.2455 61.9154C59.435 61.7635 57.6127 62.0023 55.9044 62.6152C56.328 58.5687 57.9174 54.728 60.4833 51.5503C61.1337 50.6818 61.7231 49.7701 62.2472 48.8215L63.5969 50.161V53.708C63.5965 54.0153 63.7014 54.3137 63.8943 54.5545C64.0872 54.7952 64.3568 54.9642 64.6591 55.0339C66.8384 55.5246 68.918 56.3771 70.8096 57.5553C71.0728 57.7187 71.3842 57.789 71.693 57.7546C72.0017 57.7202 72.2896 57.5833 72.5095 57.3661L75.0416 54.8582H76.9876L79.8414 57.6834V59.6099L77.3093 62.1154C77.0901 62.3331 76.952 62.6179 76.9173 62.9233C76.8825 63.2287 76.9533 63.5367 77.1181 63.7972C78.3073 65.6709 79.1677 67.7303 79.6628 69.8883C79.7324 70.1879 79.9025 70.4552 80.1453 70.6468C80.3881 70.8384 80.6893 70.943 80.9998 70.9433H84.5827L85.9564 72.3032L85.9621 76.2979ZM37.6865 5.6476V1.88527C37.6865 1.52461 37.8312 1.17872 38.0888 0.92369C38.3464 0.668663 38.6958 0.525391 39.0601 0.525391C39.4244 0.525391 39.7738 0.668663 40.0314 0.92369C40.289 1.17872 40.4337 1.52461 40.4337 1.88527V5.6476C40.4337 6.00827 40.289 6.35416 40.0314 6.60918C39.7738 6.86421 39.4244 7.00748 39.0601 7.00748C38.6958 7.00748 38.3464 6.86421 38.0888 6.60918C37.8312 6.35416 37.6865 6.00827 37.6865 5.6476ZM19.0724 7.55143C18.9114 7.24105 18.8771 6.88129 18.9766 6.54657C19.076 6.21185 19.3016 5.92777 19.6067 5.7531C19.9118 5.57843 20.273 5.52654 20.6157 5.60815C20.9583 5.68975 21.2562 5.89862 21.4477 6.19155L23.349 9.45186C23.51 9.76224 23.5443 10.122 23.4449 10.4567C23.3454 10.7914 23.1198 11.0755 22.8147 11.2502C22.5096 11.4249 22.1484 11.4768 21.8057 11.3952C21.4631 11.3135 21.1652 11.1047 20.9738 10.8117L19.0724 7.55143ZM10.9805 23.0529C10.7983 23.3645 10.4987 23.5919 10.1474 23.6852C9.79615 23.7784 9.42185 23.73 9.10661 23.5504L5.81329 21.667C5.64643 21.5835 5.49852 21.4672 5.37864 21.3252C5.25876 21.1832 5.16942 21.0185 5.1161 20.8411C5.06278 20.6637 5.04659 20.4774 5.06854 20.2936C5.09048 20.1098 5.15009 19.9324 5.24372 19.7722C5.33734 19.612 5.46301 19.4724 5.61303 19.3619C5.76305 19.2515 5.93427 19.1725 6.11619 19.1299C6.29811 19.0873 6.48691 19.0818 6.67102 19.1139C6.85514 19.1461 7.03069 19.215 7.18694 19.3167L10.4803 21.199C10.7943 21.3797 11.0233 21.6762 11.117 22.0237C11.2108 22.3711 11.1617 22.7412 10.9805 23.0529ZM5.26498 40.4582H1.46227C1.2748 40.4702 1.08685 40.444 0.910016 40.3813C0.733185 40.3185 0.571238 40.2205 0.434187 40.0933C0.297135 39.9661 0.187893 39.8125 0.113212 39.6418C0.0385316 39.4712 0 39.2872 0 39.1012C0 38.9152 0.0385316 38.7312 0.113212 38.5606C0.187893 38.3899 0.297135 38.2363 0.434187 38.1091C0.571238 37.9819 0.733185 37.8839 0.910016 37.8211C1.08685 37.7583 1.2748 37.7321 1.46227 37.7441H5.26498C5.45244 37.7321 5.6404 37.7583 5.81723 37.8211C5.99406 37.8839 6.15601 37.9819 6.29306 38.1091C6.43011 38.2363 6.53935 38.3899 6.61404 38.5606C6.68872 38.7312 6.72725 38.9152 6.72725 39.1012C6.72725 39.2872 6.68872 39.4712 6.61404 39.6418C6.53935 39.8125 6.43011 39.9661 6.29306 40.0933C6.15601 40.2205 5.99406 40.3185 5.81723 40.3813C5.6404 40.444 5.45244 40.4702 5.26498 40.4582ZM10.9805 55.1472C11.1615 55.4592 11.2102 55.8295 11.1161 56.1769C11.0219 56.5244 10.7924 56.8208 10.478 57.0012L7.18465 58.8869C6.87151 59.0435 6.50971 59.0755 6.17346 58.9765C5.8372 58.8774 5.55198 58.6547 5.37628 58.3541C5.20058 58.0535 5.14773 57.6977 5.22857 57.3598C5.3094 57.0218 5.51779 56.7272 5.811 56.5365L9.10432 54.6542C9.41921 54.4736 9.79365 54.424 10.1454 54.5165C10.4972 54.6089 10.7975 54.8357 10.9805 55.1472ZM72.8495 37.7441H76.6534C77.0016 37.7664 77.3282 37.9191 77.5669 38.1712C77.8056 38.4232 77.9384 38.7557 77.9384 39.1012C77.9384 39.4467 77.8056 39.7792 77.5669 40.0312C77.3282 40.2833 77.0016 40.436 76.6534 40.4582H72.8495C72.5013 40.436 72.1746 40.2833 71.936 40.0312C71.6973 39.7792 71.5645 39.4467 71.5645 39.1012C71.5645 38.7557 71.6973 38.4232 71.936 38.1712C72.1746 37.9191 72.5013 37.7664 72.8495 37.7441ZM67.1351 23.0529C66.9541 22.7409 66.9054 22.3707 66.9996 22.0232C67.0938 21.6757 67.3232 21.3793 67.6377 21.199L70.931 19.3167C71.0872 19.215 71.2628 19.1461 71.4469 19.1139C71.631 19.0818 71.8198 19.0873 72.0017 19.1299C72.1836 19.1725 72.3549 19.2515 72.5049 19.3619C72.6549 19.4724 72.7806 19.612 72.8742 19.7722C72.9678 19.9324 73.0274 20.1098 73.0494 20.2936C73.0713 20.4774 73.0551 20.6637 73.0018 20.8411C72.9485 21.0185 72.8592 21.1832 72.7393 21.3252C72.6194 21.4672 72.4715 21.5835 72.3046 21.667L69.009 23.5504C68.6939 23.7296 68.3199 23.7779 67.9688 23.6846C67.6178 23.5914 67.3173 23.3642 67.1351 23.0529ZM54.7723 9.45413L56.668 6.19155C56.8594 5.89862 57.1573 5.68975 57.4999 5.60815C57.8426 5.52654 58.2038 5.57843 58.5089 5.7531C58.814 5.92777 59.0396 6.21185 59.1391 6.54657C59.2385 6.88129 59.2042 7.24105 59.0432 7.55143L57.1407 10.8117C57.0564 10.9769 56.9389 11.1234 56.7955 11.242C56.652 11.3607 56.4856 11.4492 56.3064 11.5019C56.1273 11.5547 55.9391 11.5708 55.7534 11.549C55.5678 11.5273 55.3885 11.4683 55.2267 11.3756C55.0649 11.2829 54.9239 11.1585 54.8123 11.01C54.7008 10.8615 54.621 10.692 54.578 10.5119C54.5349 10.3318 54.5294 10.1449 54.5618 9.96261C54.5943 9.78034 54.6639 9.60654 54.7666 9.45186L54.7723 9.45413Z" fill="white"/>
</svg>
