<svg width="65" height="66" viewBox="0 0 65 66" fill="none" xmlns="http://www.w3.org/2000/svg">
<path d="M32.0716 47.0797C29.3171 47.0797 26.6244 46.2629 24.3341 44.7325C22.0438 43.2022 20.2588 41.0271 19.2047 38.4823C18.1506 35.9374 17.8748 33.1372 18.4121 30.4356C18.9495 27.734 20.2759 25.2525 22.2237 23.3047C24.1714 21.357 26.653 20.0306 29.3545 19.4932C32.0561 18.9558 34.8564 19.2316 37.4012 20.2857C39.9461 21.3398 42.1212 23.1249 43.6515 25.4152C45.1818 27.7055 45.9986 30.3981 45.9986 33.1526C46.0184 34.987 45.6716 36.8069 44.9787 38.5056C44.2858 40.2042 43.2607 41.7474 41.9635 43.0446C40.6663 44.3418 39.1231 45.3669 37.4245 46.0598C35.7259 46.7527 33.906 47.0994 32.0716 47.0797ZM32.0716 23.8679C30.8447 23.8401 29.6249 24.0613 28.4858 24.518C27.3468 24.9748 26.3121 25.6576 25.4443 26.5254C24.5766 27.3932 23.8937 28.4278 23.4369 29.5669C22.9802 30.7059 22.7591 31.9257 22.7869 33.1526C22.7591 34.3795 22.9802 35.5993 23.4369 36.7384C23.8937 37.8774 24.5766 38.9121 25.4443 39.7799C26.3121 40.6476 27.3468 41.3305 28.4858 41.7873C29.6249 42.244 30.8447 42.4651 32.0716 42.4373C33.2985 42.4651 34.5183 42.244 35.6573 41.7873C36.7964 41.3305 37.831 40.6476 38.6988 39.7799C39.5666 38.9121 40.2495 37.8774 40.7062 36.7384C41.163 35.5993 41.3841 34.3795 41.3563 33.1526C41.3841 31.9257 41.163 30.7059 40.7062 29.5669C40.2495 28.4278 39.5666 27.3932 38.6988 26.5254C37.831 25.6576 36.7964 24.9748 35.6573 24.518C34.5183 24.0613 33.2985 23.8401 32.0716 23.8679Z" fill="white"/>
<path d="M62.9551 21.6489L57.4757 12.1604C56.9399 11.2303 56.098 10.5149 55.0936 10.1363C54.0892 9.75757 52.9845 9.73908 51.968 10.0839L46.318 11.9949C45.3444 11.3392 44.3269 10.7511 43.2727 10.2348L42.1035 4.3887C41.8931 3.33611 41.3245 2.38895 40.4943 1.70843C39.6642 1.02792 38.6239 0.656093 37.5505 0.65625H26.5946C25.5212 0.656093 24.4809 1.02792 23.6507 1.70843C22.8206 2.38895 22.252 3.33611 22.0416 4.3887L20.8724 10.2348C19.8066 10.7455 18.7776 11.3299 17.7929 11.9836L12.1771 10.0839C11.1606 9.73908 10.0559 9.75757 9.05151 10.1363C8.04712 10.5149 7.20521 11.2303 6.66939 12.1604L1.19003 21.6489C0.653603 22.5785 0.455716 23.6652 0.630021 24.7242C0.804326 25.7832 1.34006 26.7491 2.14612 27.4577L6.62807 31.3962C6.58838 31.9798 6.53964 32.5601 6.53964 33.1527C6.53964 33.7511 6.56285 34.3427 6.60417 34.9298L2.14612 38.8479C1.34006 39.5565 0.804326 40.5224 0.630021 41.5814C0.455716 42.6404 0.653603 43.7271 1.19003 44.6566L6.66939 54.1454C7.20521 55.0755 8.04712 55.7909 9.05151 56.1696C10.0559 56.5482 11.1606 56.5667 12.1771 56.2219L17.827 54.3109C18.8004 54.967 19.8179 55.5552 20.8724 56.071L22.0416 61.9171C22.2521 62.9696 22.8208 63.9167 23.6509 64.5971C24.481 65.2775 25.5212 65.6493 26.5946 65.6491H36.7149V61.0067H26.5946L24.9465 52.7647C22.667 51.9183 20.5509 50.6844 18.6914 49.1175L10.6894 51.8242L5.21146 42.3357L11.5374 36.7763C11.1047 34.3759 11.0991 31.9181 11.5211 29.5159L5.21077 23.9701L10.6913 14.4816L18.6453 17.1721C20.5176 15.6039 22.6497 14.375 24.9451 13.5408L26.5946 5.2986H37.5505L39.1985 13.5406C41.478 14.3872 43.5941 15.6211 45.4536 17.1879L53.4543 14.4814L58.9322 23.9699L52.438 29.6619L55.4985 33.1527L61.9978 27.4574C62.804 26.749 63.3399 25.7832 63.5144 24.7243C63.6889 23.6653 63.4913 22.5786 62.9551 21.6489Z" fill="white"/>
<path d="M48.3198 56.782L42.308 50.7702L39.0352 54.043L48.3198 63.3277L64.5681 47.0795L61.2952 43.8066L48.3198 56.782Z" fill="white"/>
</svg>
