<svg width="76" height="103" viewBox="0 0 76 103" fill="none" xmlns="http://www.w3.org/2000/svg">
<path d="M13.5291 66.5633C13.5291 66.5633 13.5039 66.4986 13.4888 66.4637C13.4485 66.4637 13.4233 66.4488 13.3881 66.4488C12.6779 66.3093 11.8268 66.1449 10.9404 65.8511L1.36098 91.4526C1.08901 92.1649 1.27033 92.9569 1.82435 93.4949C2.36829 94.0179 3.17919 94.1822 3.88936 93.8883L17.7653 88.3696L24.6653 101.504C25.0027 102.142 25.6575 102.526 26.3777 102.526H26.4935C27.2691 102.476 27.9239 101.988 28.1958 101.29L37.9061 75.3304C37.9061 75.3304 37.8809 75.3553 37.8658 75.3553C36.6671 76.0177 35.0958 76.8844 33.1315 77.0787L26.0803 95.912L20.3941 85.0736C20.0466 84.4211 19.3767 84.0426 18.6666 84.0426C18.4349 84.0426 18.1882 84.0924 17.9565 84.182L6.49346 88.7445L14.2044 68.163C13.9324 67.5902 13.7158 67.0423 13.5345 66.5691L13.5291 66.5633Z" fill="white"/>
<path d="M55.6125 85.0629L49.9262 95.9013L42.8751 77.068C40.9159 76.8787 39.3445 76.012 38.1558 75.3445C38.1307 75.3445 38.1155 75.3445 38.1055 75.3196L47.8158 101.28C48.0877 101.982 48.7425 102.465 49.5181 102.515H49.6339C50.3541 102.515 51.0139 102.131 51.3463 101.494L58.2463 88.3588L72.1222 93.8776C72.8324 94.1715 73.6433 94.0071 74.1872 93.4841C74.7413 92.9462 74.9226 92.1592 74.6506 91.4419L65.0712 65.8403C64.1797 66.1342 63.3285 66.2986 62.6235 66.4281C62.5983 66.443 62.558 66.453 62.5228 66.453C62.5077 66.4928 62.4976 66.5177 62.4825 66.5426C62.3012 67.0258 62.0846 67.5737 61.8126 68.1514L69.5235 88.7329L58.0605 84.1705C57.1439 83.8019 56.0863 84.1954 55.6229 85.062L55.6125 85.0629Z" fill="white"/>
<path d="M0.00491353 37.589C0.00491353 39.3472 1.12805 40.702 2.10512 41.8974C2.59367 42.4852 3.21316 43.2373 3.27863 43.6308C3.36929 44.0791 3.03184 45.0055 2.77499 45.7627C2.26126 47.1922 1.69215 48.8109 2.28644 50.4447C2.90593 52.0885 4.40174 52.9701 5.74149 53.762C6.41134 54.1555 7.25247 54.6536 7.46895 55.0222C7.69056 55.3908 7.70063 56.372 7.71574 57.164C7.74093 58.6832 7.76611 60.4016 8.90436 61.7414C10.0376 63.0663 11.755 63.4 13.2609 63.6789C14.0466 63.8184 15.0136 64.0126 15.3511 64.2915C15.6885 64.5605 16.036 65.477 16.303 66.2042C16.857 67.6337 17.4765 69.2525 18.9974 70.1291C20.5185 70.9958 22.2359 70.7169 23.7569 70.4728C24.5426 70.3433 25.5247 70.1938 25.9478 70.3433C26.3456 70.4827 26.9802 71.2249 27.4939 71.7977C28.5012 72.9732 29.6496 74.2831 31.4022 74.5919C31.649 74.6318 31.8907 74.6567 32.1224 74.6567C33.5427 74.6567 34.8169 73.9444 35.9502 73.3168C36.6603 72.9233 37.5367 72.4352 38 72.4352C38.4633 72.4352 39.3398 72.9183 40.0498 73.3168C41.3794 74.054 42.8753 74.8858 44.6027 74.5919C46.3554 74.2881 47.5037 72.9732 48.511 71.8126C49.0247 71.2248 49.6593 70.4876 50.0571 70.3482C50.4802 70.1938 51.4623 70.3482 52.248 70.4777C53.769 70.7218 55.4864 71.0007 57.0075 70.134C58.5285 69.2524 59.148 67.6337 59.7019 66.2091C59.9739 65.4819 60.3214 64.5654 60.6538 64.2965C60.9913 64.0176 61.9683 63.8233 62.744 63.6838C64.255 63.4049 65.9673 63.0712 67.1005 61.7463C68.2338 60.4064 68.2589 58.6881 68.2892 57.1689C68.3043 56.377 68.3143 55.3958 68.536 55.0271C68.7576 54.6586 69.5936 54.1605 70.2634 53.767C71.593 52.975 73.0989 52.0984 73.7185 50.4497C74.3128 48.816 73.7436 47.1971 73.24 45.7676C72.968 45.0155 72.6457 44.0841 72.7263 43.6358C72.7917 43.2423 73.4112 42.4902 73.8998 41.9024C74.8819 40.702 76 39.3522 76 37.5939C76 35.8357 74.8769 34.4709 73.8998 33.2705C73.4112 32.6828 72.7917 31.9307 72.7263 31.5372C72.6507 31.0889 72.9731 30.1625 73.24 29.4053C73.7436 27.9758 74.3077 26.3571 73.7185 24.7382C73.099 23.0795 71.6032 22.2029 70.2634 21.4109C69.5936 21.0174 68.7524 20.5193 68.536 20.1508C68.3143 19.7822 68.3043 18.8009 68.2892 18.009C68.264 16.4898 68.2388 14.7713 67.1005 13.4316C65.9673 12.1066 64.2499 11.7729 62.744 11.4941C61.9583 11.3546 60.9913 11.1603 60.6538 10.8814C60.3164 10.6124 59.9689 9.69596 59.7019 8.96875C59.1479 7.53923 58.5284 5.92049 57.0075 5.04385C55.4864 4.17718 53.769 4.4561 52.248 4.70017C51.4623 4.82967 50.4802 4.9791 50.0571 4.82967C49.6593 4.6902 49.0247 3.94805 48.511 3.36534C47.5037 2.20479 46.3553 0.889851 44.6027 0.585993C42.8753 0.292119 41.3794 1.12393 40.0498 1.8611C39.3396 2.25458 38.4633 2.74272 38 2.74272C37.5367 2.74272 36.6602 2.25957 35.9502 1.8611C34.6206 1.12393 33.1147 0.292081 31.3973 0.585993C29.6445 0.889825 28.4963 2.20474 27.489 3.38026C26.9753 3.96801 26.3407 4.69515 25.9428 4.83465C25.5198 4.98905 24.5377 4.83465 23.752 4.70515C22.231 4.46108 20.5136 4.18215 18.9925 5.04882C17.4715 5.93045 16.852 7.54918 16.2981 8.97373C16.0261 9.70093 15.6786 10.6074 15.3462 10.8864C15.0087 11.1653 14.0317 11.3596 13.256 11.499C11.745 11.778 10.0327 12.1117 8.89945 13.4366C7.76624 14.7764 7.74105 16.4948 7.71083 18.0139C7.71083 18.8059 7.68565 19.7871 7.46404 20.1557C7.24243 20.5244 6.40638 21.0224 5.73658 21.4159C4.39682 22.2078 2.90106 23.0845 2.28153 24.7432C1.68722 26.3619 2.25635 27.9808 2.77008 29.4103C3.02694 30.1624 3.34927 31.0938 3.27372 31.5421C3.20824 31.9356 2.58875 32.6878 2.10021 33.2755C1.11809 34.4759 0 35.8257 0 37.5989L0.00491353 37.589ZM5.09678 35.6912C5.92276 34.6951 6.84951 33.5743 7.09629 32.1847C7.34309 30.7701 6.8495 29.3805 6.42644 28.1402C6.17965 27.4379 5.80695 26.3819 5.9228 26.0383C6.06383 25.6697 7.05601 25.082 7.71576 24.6984C8.83889 24.0459 10.1031 23.2938 10.8233 22.0735C11.5435 20.8233 11.5687 19.3589 11.5838 18.0689C11.5989 17.3168 11.6241 16.1811 11.8659 15.8873C12.1127 15.5934 13.2308 15.3892 13.9812 15.2498C15.2705 15.0057 16.726 14.7268 17.8341 13.8103C18.9422 12.8938 19.4609 11.529 19.9243 10.3187C20.1962 9.61637 20.5941 8.54551 20.9416 8.35615C21.264 8.16688 22.3871 8.35615 23.1325 8.47072C24.4218 8.67494 25.8925 8.90405 27.2573 8.42091C28.6122 7.93776 29.5641 6.84194 30.4152 5.85577C30.9188 5.28297 31.6643 4.41631 32.0671 4.35153C32.4146 4.28678 33.4471 4.84961 34.0666 5.19331C35.2149 5.83086 36.5295 6.55805 38.0001 6.55805C39.4708 6.55805 40.7854 5.83085 41.9337 5.19331C42.5532 4.85958 43.5856 4.28678 43.9332 4.35153C44.3311 4.41628 45.0815 5.28296 45.5851 5.85577C46.4362 6.83701 47.3881 7.9328 48.7429 8.42091C50.1078 8.90406 51.5785 8.67493 52.8678 8.47072C53.6132 8.35615 54.7363 8.16688 55.0586 8.35615C55.4062 8.54543 55.804 9.61631 56.076 10.3187C56.5394 11.529 57.0682 12.8937 58.1662 13.8103C59.2742 14.7268 60.7298 15.0107 62.0191 15.2498C62.7645 15.3892 63.8876 15.5934 64.1445 15.8873C64.3761 16.1812 64.4013 17.3168 64.4164 18.054C64.4315 19.3539 64.4567 20.8234 65.1769 22.0685C65.8972 23.2938 67.1614 24.0459 68.2845 24.6934C68.9443 25.0869 69.9364 25.6647 70.0775 26.0333C70.1933 26.377 69.8206 27.438 69.5738 28.1352C69.1508 29.3705 68.6572 30.7601 68.904 32.1797C69.1508 33.5693 70.0775 34.7051 70.9035 35.6863C71.4172 36.3089 72.1273 37.1656 72.1273 37.584C72.1273 38.0024 71.4172 38.8442 70.9035 39.4718C70.0775 40.453 69.1508 41.5887 68.904 42.9783C68.6572 44.3929 69.1508 45.7826 69.5738 47.0228C69.8206 47.7251 70.1933 48.7811 70.0775 49.1247C69.9364 49.4933 68.9443 50.0811 68.2845 50.4646C67.1614 51.1171 65.8972 51.8693 65.1769 53.0895C64.4567 54.3397 64.4315 55.8041 64.4164 57.0941C64.4013 57.8462 64.3761 58.9819 64.1344 59.2757C63.8876 59.5696 62.7695 59.7738 62.0191 59.9133C60.7297 60.1573 59.2742 60.4363 58.1662 61.3527C57.0581 62.2692 56.5394 63.634 56.076 64.8444C55.804 65.5467 55.4062 66.6175 55.0586 66.8069C54.7363 66.9862 53.6132 66.8069 52.8678 66.6923C51.5784 66.4881 50.1078 66.244 48.7429 66.7421C47.3881 67.2253 46.4362 68.336 45.5851 69.3073C45.0814 69.8801 44.336 70.7467 43.9332 70.8115C43.5705 70.8613 42.5532 70.3134 41.9337 69.9697C40.7853 69.3322 39.4708 68.605 38.0001 68.605C36.5295 68.605 35.2149 69.3322 34.0666 69.9697C33.4471 70.3134 32.4398 70.8862 32.0671 70.8115C31.6692 70.7467 30.9188 69.8801 30.4152 69.3073C29.564 68.336 28.6122 67.2302 27.2573 66.7421C26.663 66.523 26.0435 66.4482 25.424 66.4482C24.6383 66.4482 23.8526 66.5778 23.1274 66.6923C22.382 66.8069 21.2589 66.9862 20.9366 66.8069C20.5891 66.6176 20.1912 65.5467 19.9192 64.8444C19.4559 63.634 18.9371 62.2693 17.8291 61.3527C16.721 60.4362 15.2655 60.1523 13.9761 59.9133C13.2307 59.7738 12.1076 59.5696 11.8608 59.2757C11.614 58.9818 11.5889 57.8462 11.5788 57.0941C11.5637 55.8041 11.5385 54.3397 10.8183 53.0895C10.0981 51.8642 8.83386 51.1121 7.71072 50.4646C7.05093 50.0711 6.05881 49.4933 5.91776 49.1247C5.80192 48.781 6.17462 47.7201 6.4214 47.0228C6.84447 45.7975 7.33805 44.3979 7.09125 42.9783C6.84446 41.5887 5.91774 40.4679 5.09174 39.4718C4.57801 38.8492 3.86787 37.9924 3.86787 37.584C3.86787 37.1756 4.57801 36.3089 5.09174 35.6863L5.09678 35.6912Z" fill="white"/>
<path d="M38.0009 64.4465C52.9843 64.4465 65.1531 52.3977 65.1531 37.594C65.1531 22.7903 52.9799 10.7275 38.0009 10.7275C23.0174 10.7275 10.8486 22.7763 10.8486 37.594C10.8486 52.412 23.0218 64.4465 38.0009 64.4465ZM38.0009 14.5529C50.8439 14.5529 61.2851 24.8833 61.2851 37.594C61.2851 50.3048 50.8394 60.6212 38.0009 60.6212C25.1579 60.6212 14.7167 50.2908 14.7167 37.594C14.7167 24.8928 25.1624 14.5529 38.0009 14.5529Z" fill="white"/>
<path d="M35.0848 42.8591C35.4474 43.2177 35.936 43.4219 36.4497 43.4219C36.9634 43.4219 37.457 43.2177 37.8146 42.8591L45.742 35.0192C46.4874 34.282 46.4874 33.0668 45.742 32.3146C44.9815 31.5625 43.7576 31.5625 43.0072 32.3146L36.4447 38.8046L32.9745 35.3728C32.2291 34.6356 31.0003 34.6356 30.2397 35.3728C29.4943 36.1249 29.4943 37.3353 30.2397 38.0774L35.0747 42.8591H35.0848Z" fill="white"/>
</svg>
