<svg width="65" height="64" viewBox="0 0 65 64" fill="none" xmlns="http://www.w3.org/2000/svg">
<path d="M47.5011 57.3815L41.9758 51.8564L38.9678 54.8646L47.5011 63.3979L64.5678 46.3312L61.5596 43.3232L47.5011 57.3815Z" fill="white"/>
<path d="M32.569 47.5893L28.0065 45.4288C24.2981 43.6746 21.9023 39.8892 21.9023 35.7872V21.9893H43.2357V35.7872C43.2357 39.8894 40.8399 43.6748 37.1316 45.4288L32.569 47.5893ZM26.169 26.2559V35.7872C26.169 38.2476 27.6064 40.5185 29.8315 41.5705L32.569 42.8663L35.3065 41.5705C37.5316 40.5183 38.969 38.2476 38.969 35.7872V26.2559H26.169Z" fill="white"/>
<path d="M7.22607 36.1895C8.3578 35.4228 9.10169 34.126 9.10169 32.6563C9.10169 30.3 7.19129 28.3896 4.83503 28.3896C2.47876 28.3896 0.568359 30.3 0.568359 32.6563C0.568359 34.3387 1.55119 35.7804 2.96623 36.475C4.41519 47.8542 12.2403 57.4834 23.3792 61.0823L24.6906 57.022C15.2282 53.9658 8.55364 45.8301 7.22607 36.1895Z" fill="white"/>
<path d="M62.1697 28.8378C60.7207 17.4586 52.8957 7.8294 41.7567 4.23047L40.4453 8.29084C49.9077 11.3471 56.5823 19.4825 57.9098 29.1231C56.7781 29.8898 56.0342 31.1866 56.0342 32.6563C56.0342 35.0125 57.9446 36.923 60.3009 36.923C62.6572 36.923 64.5676 35.0125 64.5676 32.6563C64.5676 30.9739 63.5854 29.5324 62.1697 28.8378Z" fill="white"/>
<path d="M32.5696 0.65625C30.8868 0.65625 29.4455 1.63844 28.7513 3.05412C17.3721 4.50308 7.74249 12.3281 4.14355 23.4667L8.20393 24.7791C11.2608 15.3167 19.3956 8.64153 29.0361 7.3146C29.8033 8.4459 31.0991 9.18958 32.5694 9.18958C34.9256 9.18958 36.836 7.27918 36.836 4.92292C36.836 2.56665 34.9258 0.65625 32.5696 0.65625Z" fill="white"/>
</svg>
