<svg width="65" height="64" viewBox="0 0 65 64" fill="none" xmlns="http://www.w3.org/2000/svg">
<path d="M62.5182 33.6567C61.239 32.3775 59.503 31.6465 57.6984 31.6465H57.6755C55.8481 31.6465 54.112 32.3546 52.8328 33.6567L41.6398 44.8497C41.3886 41.2862 38.419 38.4993 34.8327 38.4993H18.8427C12.538 38.4993 7.42122 43.6161 7.42122 49.9208V51.4513L0.568359 60.5884L4.22322 63.3295L11.9898 52.9817V49.9436C11.9898 46.1517 15.0507 43.0908 18.8427 43.0908H34.8327C36.089 43.0908 37.1169 44.1187 37.1169 45.375C37.1169 46.6314 36.089 47.6593 34.8327 47.6593H25.6955V52.2279H36.957C39.3784 52.2279 41.7084 51.2685 43.4216 49.5553L56.0765 36.9003C56.5105 36.4663 57.0816 36.2379 57.6984 36.2379C58.9547 36.2379 59.9827 37.2658 59.9827 38.5222C59.9827 39.1161 59.7314 39.71 59.3202 40.1212L42.3936 57.0478C41.1144 58.327 39.3555 59.0579 37.551 59.0579H21.1726V63.6265H37.551C40.5891 63.6265 43.4901 62.4387 45.6373 60.2914L62.5639 43.3649C65.2365 40.6923 65.2365 36.3521 62.5639 33.6795L62.5182 33.6567Z" fill="white"/>
<path d="M48.0121 3.52692C44.4487 -0.105096 38.6694 -0.310681 34.8318 3.02438C30.9942 -0.310681 25.215 -0.0822527 21.6515 3.52692C17.9052 7.36452 17.9052 13.5093 21.6515 17.324L34.809 30.6642L47.9665 17.324C51.7127 13.4864 51.7127 7.34168 47.9665 3.52692H48.0121ZM44.7456 14.126L34.8318 24.1769L24.918 14.126C22.9078 12.0702 22.9078 8.78078 24.918 6.74776C26.9282 4.80612 30.1262 4.80612 32.1363 6.74776L34.8318 9.51175L37.5273 6.74776C39.5374 4.80612 42.7354 4.80612 44.7456 6.74776C46.7558 8.80362 46.7558 12.093 44.7456 14.126Z" fill="white"/>
</svg>
