<svg width="40" height="40" viewBox="0 0 40 40" fill="none" xmlns="http://www.w3.org/2000/svg">
<path d="M7.69276 35.0605C8.54243 35.0605 9.23122 34.4335 9.23122 33.6601C9.23122 32.8867 8.54243 32.2598 7.69276 32.2598C6.84309 32.2598 6.1543 32.8867 6.1543 33.6601C6.1543 34.4335 6.84309 35.0605 7.69276 35.0605Z" fill="#FF5C00"/>
<path d="M3.07692 39.261H36.9231C38.6154 39.261 40 38.0006 40 36.4602V30.8588C40 29.3184 38.6154 28.0581 36.9231 28.0581H3.07692C1.38462 28.0581 0 29.3184 0 30.8588V36.4602C0 38.0006 1.38462 39.261 3.07692 39.261ZM3.07692 30.8588H36.9231V36.4602H3.07692V30.8588Z" fill="#FF5C00"/>
<path d="M30.7692 25.2577H9.23077C4.13846 25.2577 0 21.4907 0 16.8556C0 12.5845 3.52308 9.04156 8.07692 8.52343C9.43077 3.62218 14.3538 0.0512695 20 0.0512695C25.6462 0.0512695 30.5692 3.62218 31.9231 8.52343C36.4769 9.04156 40 12.5845 40 16.8556C40 21.4907 35.8615 25.2577 30.7692 25.2577ZM9.15385 11.2541C5.8 11.2961 3.07692 13.7888 3.07692 16.8556C3.07692 19.9503 5.83077 22.457 9.23077 22.457H30.7692C34.1692 22.457 36.9231 19.9503 36.9231 16.8556C36.9231 13.7888 34.2154 11.2961 30.8615 11.2541L30.6769 11.2681L29.3231 11.2961L29.1385 10.0638C28.4769 5.94677 24.5538 2.85198 20 2.85198C15.4462 2.85198 11.5231 5.94677 10.8769 10.0638L10.6923 11.2961L9.15385 11.2541Z" fill="#FF5C00"/>
</svg>
