<svg width="26" height="41" viewBox="0 0 26 41" fill="none" xmlns="http://www.w3.org/2000/svg">
<path d="M4.81585 40.051L6.14916 37.1939H18.9962L20.3296 40.051H23.4828L14.0017 19.7333V12.9077H11.1445V19.7333L1.66309 40.051H4.81585ZM12.5731 23.4289L14.9967 28.6223H10.1495L12.5731 23.4289ZM8.81593 31.4795H16.3303L17.6637 34.3367H7.4829L8.81593 31.4795Z" fill="#FF5C00"/>
<path d="M5.11914 10.526C6.05721 9.47767 7.20591 8.639 8.49018 8.06482C9.77445 7.49063 11.1654 7.19385 12.5722 7.19385C13.979 7.19385 15.3699 7.49063 16.6542 8.06482C17.9385 8.639 19.0872 9.47767 20.0253 10.526L17.8967 12.4318C17.2267 11.6827 16.4061 11.0834 15.4887 10.6731C14.5712 10.2628 13.5775 10.0507 12.5725 10.0507C11.5675 10.0507 10.5738 10.2628 9.65631 10.6731C8.73886 11.0834 7.91832 11.6827 7.24832 12.4318L5.11914 10.526Z" fill="#FF5C00"/>
<path d="M0 6.33586C1.46408 4.3845 3.36231 2.80073 5.5444 1.70994C7.72649 0.619144 10.1325 0.0512695 12.5721 0.0512695C15.0116 0.0512695 17.4177 0.619144 19.5998 1.70994C21.7818 2.80073 23.6801 4.3845 25.1442 6.33586L22.8587 8.05103C21.6609 6.45404 20.1078 5.15786 18.3223 4.26512C16.5368 3.37238 14.568 2.90761 12.5718 2.90761C10.5756 2.90761 8.60674 3.37238 6.82125 4.26512C5.03576 5.15786 3.48264 6.45404 2.2849 8.05103L0 6.33586Z" fill="#FF5C00"/>
</svg>
