<svg width="40" height="40" viewBox="0 0 40 40" fill="none" xmlns="http://www.w3.org/2000/svg">
<path d="M38.6207 24.3885H33.1034V18.9802H30.3448V31.1488H8.27586V9.51573L20.6897 9.51452V6.8116H15.1724V1.40332H12.4138V6.8116H8.27586C7.54445 6.81231 6.84321 7.09744 6.32603 7.60441C5.80885 8.11138 5.51797 8.79877 5.51724 9.51573V13.5719H0V16.2761H5.51724V24.3885H0V27.0926H5.51724V31.1488C5.51808 31.8658 5.80899 32.5531 6.32615 33.06C6.84331 33.567 7.54449 33.8521 8.27586 33.853H12.4138V39.2612H15.1724V33.853H23.4483V39.2612H26.2069V33.853H30.3448C31.0762 33.852 31.7773 33.5668 32.2944 33.0599C32.8115 32.553 33.1025 31.8657 33.1034 31.1488V27.0926H38.6207V24.3885Z" fill="#FF5C00"/>
<path d="M26.2072 27.0925H12.4141V13.5718H26.2072V27.0925ZM15.1727 24.3883H23.4485V16.2759H15.1727V24.3883Z" fill="#FF5C00"/>
<path d="M40 16.2761H37.2413C37.2371 12.6915 35.7825 9.25486 33.1967 6.72015C30.6109 4.18544 27.1051 2.75959 23.4482 2.75541V0.0512695C27.8366 0.0559578 32.0438 1.76686 35.1468 4.80859C38.2498 7.85032 39.9952 11.9744 40 16.2761Z" fill="#FF5C00"/>
<path d="M33.1034 16.276H30.3448C30.3426 14.4837 29.6154 12.7654 28.3225 11.4981C27.0296 10.2307 25.2767 9.51777 23.4482 9.51566V6.81152C26.008 6.81456 28.462 7.81269 30.2721 9.58697C32.0821 11.3612 33.1003 13.7668 33.1034 16.276Z" fill="#FF5C00"/>
</svg>
