<svg width="31" height="31" viewBox="0 0 31 31" fill="none" xmlns="http://www.w3.org/2000/svg">
<path d="M15.8403 30.4349C24.0951 30.4349 30.787 23.8165 30.787 15.6523C30.787 7.48805 24.0951 0.869629 15.8403 0.869629C7.58542 0.869629 0.893555 7.48805 0.893555 15.6523C0.893555 23.8165 7.58542 30.4349 15.8403 30.4349Z" fill="white"/>
<path d="M18.0868 12.7903V15.5528H22.2169L21.5541 19.8094H18.0872V30.2682C17.3536 30.3757 16.6037 30.4349 15.8376 30.4349C15.0169 30.4349 14.2181 30.3704 13.4357 30.2412V19.8094H9.65332V15.5528H13.4357V12.312C13.4467 10.7908 13.7781 9.2109 15.0661 7.96919C15.9626 7.10916 17.2506 6.60386 19.0602 6.58252C20.2233 6.59339 21.3318 6.69526 22.3915 6.86758V10.4901H20.5168C19.854 10.4848 19.2996 10.635 18.8648 10.9632C18.3323 11.3879 18.0933 12.0112 18.0876 12.7903H18.0868Z" fill="#0C0C0C"/>
</svg>
