<svg width="205" height="104" viewBox="0 0 205 104" fill="none" xmlns="http://www.w3.org/2000/svg">
<rect x="0.467773" y="0.961426" width="204.367" height="102.183" fill="white"/>
<path fill-rule="evenodd" clip-rule="evenodd" d="M102.95 69.8595L87.1673 54.102L102.95 38.32L118.719 54.0893L102.95 69.8595ZM118.815 71.6426L118.828 54.0963L122.853 50.0333L102.966 30.1335L83.0658 50.0333L87.1038 54.0963V71.6426L65.4932 50.0333L102.966 12.5732L140.425 50.0333L118.815 71.6426Z" fill="#18316E"/>
<path fill-rule="evenodd" clip-rule="evenodd" d="M99.4691 81.8106L98.4623 79.9159H93.978H92.5355H86.2093H85.2452H84.3841L83.6866 78.3573C83.6866 78.3573 82.9201 76.2228 81.8642 75.1195C80.7855 74.065 79.5864 74.3521 79.5864 74.3521L80.0904 76.439C80.0904 76.439 80.6418 76.2949 81.3849 76.7022C82.1763 77.1339 82.7044 78.1898 82.7044 78.1898L83.5778 79.9159H82.1081H80.282H73.1602L74.1714 81.8106H77.5283V84.1361C77.5283 84.1361 77.5522 84.3755 77.2885 84.5678C77.0728 84.7599 76.785 84.7599 76.785 84.7599C76.785 84.7599 76.3771 84.0634 75.7059 84.2083C74.8668 84.3755 74.8427 85.3347 75.4183 86.1985C75.8255 86.7977 75.97 86.9896 75.97 86.9896L79.4227 91.3775L80.3824 90.5137L77.6479 87.1573C77.6479 87.1573 78.1519 86.9655 78.6072 86.6546C79.1588 86.3181 79.2314 86.0785 79.2314 86.0785C79.2314 86.0785 79.9744 86.8696 80.8373 87.0373C81.5381 87.1783 82.3159 87.0232 82.6838 86.9304V89.9389L84.8179 91.3775V81.8106H86.257H87.216H93.5464H94.9372V83.7544C94.5642 83.5666 93.6213 83.2072 92.6353 83.7286C92.1797 83.9435 91.7722 84.3755 91.7722 84.3755C91.7722 84.3755 91.2209 83.5368 90.2849 83.1769C88.5828 82.5527 86.9526 83.8007 86.8798 85.6469C86.8326 87.5889 88.1993 89.2674 88.7987 89.8434C89.5903 90.6104 90.3572 91.1852 90.3572 91.1852L90.9802 90.3956C90.9802 90.3956 89.4943 89.6272 88.7987 88.0686C88.4392 87.1817 88.4392 85.382 89.638 84.8317C90.5734 84.3755 91.2209 85.0472 91.2209 85.0472C91.2209 85.0472 90.9802 85.407 90.8852 85.5987C90.6207 86.0062 90.4294 86.3181 90.4294 86.3181L92.1561 87.4694C92.1561 87.4694 92.7789 86.2462 93.3547 85.6232C93.9754 84.9496 94.6356 84.7468 94.9372 84.6876V89.9389L97.0715 91.3775V81.8106H99.4691ZM126.936 86.452C126.936 88.1719 126.905 89.355 126.813 90.7094C127.151 90.6791 127.566 90.6323 130.07 90.6323C131.483 90.6323 132.205 90.6941 132.758 90.7094C132.727 90.5228 132.697 90.3696 132.697 90.0461C132.697 89.7234 132.727 89.5698 132.758 89.355C131.575 89.4927 130.392 89.5549 129.24 89.5549C129.225 88.7565 129.209 87.5889 129.209 86.452V84.3629C129.209 82.6429 129.24 81.4591 129.332 80.1076C128.995 80.1379 128.58 80.1846 128.073 80.1846C127.566 80.1846 127.151 80.1379 126.813 80.1076C126.905 81.4591 126.936 82.6429 126.936 84.3629V86.452ZM122.309 86.452C122.309 88.1719 122.278 89.355 122.186 90.7094C122.524 90.6791 122.938 90.6323 123.446 90.6323C123.953 90.6323 124.368 90.6791 124.705 90.7094C124.613 89.355 124.583 88.1719 124.583 86.452V84.3629C124.583 82.6429 124.613 81.4591 124.705 80.1076C124.368 80.1379 123.953 80.1846 123.446 80.1846C122.938 80.1846 122.524 80.1379 122.186 80.1076C122.278 81.4591 122.309 82.6429 122.309 84.3629V86.452ZM114.21 86.6512C114.656 85.407 115.132 84.1939 115.654 82.9953C116.146 84.1939 116.576 85.407 117.022 86.6512H114.21ZM116.822 80.031C116.622 80.0612 116.438 80.1076 116.238 80.1076C116.038 80.1076 115.854 80.0612 115.654 80.031C114.334 83.5329 112.029 89.0021 111.276 90.7094C111.568 90.6791 111.798 90.6323 112.044 90.6323C112.29 90.6323 112.521 90.6791 112.766 90.7094C113.058 89.6468 113.397 88.6028 113.811 87.5574C114.348 87.5425 114.871 87.5276 115.408 87.5276C116.069 87.5276 116.714 87.5425 117.374 87.5574C117.759 88.6028 118.112 89.6631 118.435 90.7094C118.865 90.6791 119.31 90.6323 119.741 90.6323C120.171 90.6323 120.601 90.6791 121.093 90.7094C119.924 88.2035 118.127 83.5329 116.822 80.031ZM109.937 82.1819C110.137 81.5054 110.244 81.1365 110.428 80.6605C109.844 80.1999 109.015 79.9076 107.909 79.9076C106.081 79.9076 104.453 81.0747 104.453 83.1953C104.453 86.6827 109.03 86.068 109.03 88.3874C109.03 89.2476 108.431 89.9542 107.233 89.9542C105.989 89.9542 105.282 89.1858 105.113 88.2955H104.821C104.714 88.9868 104.575 89.5397 104.376 90.2462C104.821 90.5837 105.743 90.9094 106.849 90.9094C109.292 90.9094 110.92 89.4927 110.92 87.4356C110.92 83.9474 106.249 84.5161 106.249 82.2422C106.249 81.5054 106.91 80.8606 107.847 80.8606C108.785 80.8606 109.383 81.3054 109.706 82.1819H109.937ZM81.2929 81.8106H82.6838V84.5074C82.4023 84.7446 81.8493 85.1193 81.053 85.2625C80.1901 85.407 79.6623 85.0226 79.6623 85.0226V81.8106H81.2929Z" fill="#231F20"/>
</svg>
