<svg width="65" height="63" viewBox="0 0 65 63" fill="none" xmlns="http://www.w3.org/2000/svg">
<path d="M62.5182 33.0004C61.239 31.7212 59.503 30.9902 57.6984 30.9902H57.6755C55.8481 30.9902 54.112 31.6984 52.8328 33.0004L41.6398 44.1934C41.3886 40.6299 38.419 37.8431 34.8327 37.8431H18.8427C12.538 37.8431 7.42122 42.9599 7.42122 49.2645V50.795L0.568359 59.9321L4.22322 62.6733L11.9898 52.3255V49.2874C11.9898 45.4955 15.0507 42.4345 18.8427 42.4345H34.8327C36.089 42.4345 37.1169 43.4624 37.1169 44.7188C37.1169 45.9752 36.089 47.0031 34.8327 47.0031H25.6955V51.5717H36.957C39.3784 51.5717 41.7084 50.6123 43.4216 48.899L56.0765 36.2441C56.5105 35.8101 57.0816 35.5817 57.6984 35.5817C58.9547 35.5817 59.9827 36.6096 59.9827 37.8659C59.9827 38.4599 59.7314 39.0538 59.3202 39.4649L42.3936 56.3915C41.1144 57.6707 39.3555 58.4017 37.551 58.4017H21.1726V62.9702H37.551C40.5891 62.9702 43.4901 61.7824 45.6373 59.6352L62.5639 42.7086C65.2365 40.036 65.2365 35.6959 62.5639 33.0232L62.5182 33.0004Z" fill="white"/>
<path d="M48.0131 2.87067C44.4496 -0.761346 38.6704 -0.966931 34.8328 2.36813C30.9952 -0.966931 25.2159 -0.738503 21.6524 2.87067C17.9062 6.70827 17.9062 12.853 21.6524 16.6678L34.8099 30.008L47.9674 16.6678C51.7137 12.8302 51.7137 6.68543 47.9674 2.87067H48.0131ZM44.7466 13.4698L34.8328 23.5206L24.919 13.4698C22.9088 11.4139 22.9088 8.12453 24.919 6.09151C26.9291 4.14987 30.1272 4.14987 32.1373 6.09151L34.8328 8.8555L37.5282 6.09151C39.5384 4.14987 42.7364 4.14987 44.7466 6.09151C46.7568 8.14737 46.7568 11.4367 44.7466 13.4698Z" fill="white"/>
</svg>
