<svg width="75" height="71" viewBox="0 0 75 71" fill="none" xmlns="http://www.w3.org/2000/svg">
<path fill-rule="evenodd" clip-rule="evenodd" d="M72.5357 66.1239C71.4686 66.1239 70.554 66.9754 70.554 68.1366C70.554 69.2204 71.3924 70.1493 72.5357 70.1493C73.6028 70.1493 74.5174 69.2978 74.5174 68.1366C74.4412 66.9754 73.6028 66.1239 72.5357 66.1239ZM72.5357 66.3561C73.4503 66.3561 74.2126 67.1303 74.2126 68.0592C74.2126 68.9881 73.5266 69.7623 72.5357 69.7623C71.6211 69.7623 70.8588 68.9881 70.8588 68.0592C70.8588 67.1303 71.5448 66.3561 72.5357 66.3561ZM72.0784 68.214H72.5357L73.1455 69.2204H73.4503L72.7644 68.214C73.0693 68.1366 73.2979 67.9818 73.2979 67.5947C73.2979 67.2077 73.0692 66.9754 72.5357 66.9754H71.7735V69.2978H72.0784V68.214ZM72.0784 67.9818V67.2077H72.6119C72.9168 67.2077 73.1455 67.2851 73.1455 67.5947C73.1455 67.9818 72.8406 67.9818 72.4595 67.9818H72.0784ZM6.75718 30.979L3.47969 33.3013C1.11685 34.927 -0.026465 38.1783 2.10772 41.2747C4.16568 44.3712 7.51939 44.4486 9.95846 42.7456L13.2359 40.4232L11.4066 37.7138L8.35782 39.8813C7.21451 40.7329 5.76631 40.2684 5.08033 39.1846C4.31812 38.1009 4.39434 36.63 5.61387 35.7785L8.6627 33.611L6.75718 30.979ZM55.7671 0.401367C55.5385 0.401367 55.3098 0.556191 55.1574 0.633602C53.8616 1.56254 52.8707 2.95595 54.0141 4.5816C55.6909 6.98136 59.1208 3.57525 59.8831 4.73642C60.1879 5.12348 59.9593 5.58795 59.4257 5.97501C59.1971 6.12983 58.8922 6.12983 58.5873 6.05242C58.3586 5.97501 58.13 5.82019 57.9775 5.58795L55.7671 7.2136C57.1391 9.2263 58.9684 8.45218 60.569 7.36842C62.0935 6.28466 63.3892 4.65901 62.1697 2.95595C61.4075 1.87219 60.569 1.71737 59.5782 2.02701C57.6727 2.64631 56.6818 3.34301 56.3769 2.87854C56.1482 2.49148 56.2245 2.10442 56.5293 1.87219C56.8342 1.63995 57.1391 1.56254 57.3678 1.63995C57.5964 1.71737 57.6726 1.79478 57.8251 2.02701L60.3404 0.401367H68.8771V25.8698H39.151C34.9589 25.8698 28.8612 27.8051 28.8612 35.1592C28.8612 42.2037 35.1113 44.139 39.151 44.139H68.8009V69.9945H36.1784C18.1903 69.9945 0.125977 57.7634 0.125977 35.1592C0.125977 12.555 18.8763 0.401367 36.1784 0.401367H55.4622H55.7671ZM18.2665 36.8623L20.7818 35.0818C20.2483 34.3851 19.9434 33.998 19.5623 33.4562L16.1323 28.4244L13.6171 30.2049L16.2086 34.0755C16.2848 34.1529 17.3519 35.3915 16.1323 36.3204C15.3701 36.8623 14.6841 36.243 14.2268 35.6237L11.5591 31.6757L9.04381 33.4562L12.0926 37.946C13.0835 39.4169 14.7604 39.6491 16.2086 38.6427C17.047 38.0235 17.5043 37.3268 17.6568 36.243L18.2665 36.8623ZM19.1812 26.2569L16.7421 27.9599C17.2756 28.6566 17.5805 29.0437 17.9616 29.5856L21.3916 34.5399L23.9069 32.7595L21.3153 28.8889C21.2391 28.8115 20.172 27.5729 21.3916 26.6439C22.1538 26.1021 22.8398 26.7213 23.2971 27.3406L25.9648 31.2886L28.4801 29.5082L25.8886 25.6376C25.8124 25.5602 24.7453 24.3216 25.9648 23.3926C26.727 22.8508 27.413 23.4701 27.8703 24.0893L30.5381 28.0373L33.0533 26.2569L29.8521 22.0766C28.8612 20.6058 27.1843 20.3736 25.7362 21.3799C24.7453 22.0766 24.2117 23.1604 24.288 24.3216C23.4495 23.7023 22.23 23.9345 21.4678 24.4764C20.4769 25.1731 19.8672 26.1021 20.0196 27.3406L19.1812 26.2569ZM31.6052 17.5094L29.1661 19.2124C29.6996 19.9091 30.0045 20.2962 30.3856 20.8381L33.8156 25.7924L36.3308 24.0119L33.7393 20.1414C33.6631 20.0639 32.596 18.8254 33.8156 17.8964C34.5778 17.3545 35.2637 17.9738 35.7211 18.5931L38.3888 22.5411L40.9041 20.7606L38.3126 16.8901C38.2364 16.8126 37.1693 15.5741 38.3888 14.6451C39.151 14.1032 39.837 14.7225 40.2943 15.3418L42.962 19.2898L45.4773 17.5094L42.4285 13.0195C41.4376 11.5487 39.7608 11.3164 38.3126 12.3228C37.3217 13.0195 36.7882 14.1032 36.8644 15.2644C36.026 14.6451 34.8064 14.8774 34.0442 15.4192C33.0533 16.1159 32.4436 17.0449 32.596 18.2835L31.6052 17.5094ZM48.6786 15.4192L44.1054 8.76183L41.5901 10.4649L46.1633 17.1223L48.6786 15.4192ZM43.3432 7.60066L42.1236 5.82019L39.6083 7.60066L40.8279 9.38113L43.3432 7.60066ZM47.5353 6.36207L45.02 8.14254C45.5536 8.83924 45.8584 9.2263 46.2395 9.76818L49.6695 14.7225L52.1848 12.9421L49.5933 9.07148C49.517 8.99407 48.4499 7.75548 49.6695 6.82654C50.4317 6.28466 51.1177 6.90395 51.575 7.52324L54.2427 11.4712L56.758 9.69077L53.7092 5.20089C52.7183 3.73007 51.0414 3.49784 49.5933 4.50419C48.7548 5.12348 48.2975 5.82019 48.1451 6.90395L47.5353 6.36207Z" fill="black"/>
</svg>
