<svg width="65" height="63" viewBox="0 0 65 63" fill="none" xmlns="http://www.w3.org/2000/svg">
<path d="M47.5011 56.7252L41.9758 51.2001L38.9678 54.2083L47.5011 62.7417L64.5678 45.675L61.5596 42.667L47.5011 56.7252Z" fill="white"/>
<path d="M32.569 46.933L28.0065 44.7726C24.2981 43.0183 21.9023 39.233 21.9023 35.131V21.333H43.2357V35.131C43.2357 39.2332 40.8399 43.0186 37.1316 44.7726L32.569 46.933ZM26.169 25.5997V35.131C26.169 37.5914 27.6064 39.8623 29.8315 40.9142L32.569 42.21L35.3065 40.9142C37.5316 39.8621 38.969 37.5914 38.969 35.131V25.5997H26.169Z" fill="white"/>
<path d="M7.22607 35.5333C8.3578 34.7666 9.10169 33.4697 9.10169 32.0001C9.10169 29.6438 7.19129 27.7334 4.83503 27.7334C2.47876 27.7334 0.568359 29.6438 0.568359 32.0001C0.568359 33.6824 1.55119 35.1241 2.96623 35.8187C4.41519 47.1979 12.2403 56.8272 23.3792 60.4261L24.6906 56.3657C15.2282 53.3095 8.55364 45.1738 7.22607 35.5333Z" fill="white"/>
<path d="M62.1697 28.1816C60.7207 16.8024 52.8957 7.17315 41.7567 3.57422L40.4453 7.63459C49.9077 10.6908 56.5823 18.8263 57.9098 28.4668C56.7781 29.2335 56.0342 30.5304 56.0342 32C56.0342 34.3563 57.9446 36.2667 60.3009 36.2667C62.6572 36.2667 64.5676 34.3563 64.5676 32C64.5676 30.3177 63.5854 28.8762 62.1697 28.1816Z" fill="white"/>
<path d="M32.5696 0C30.8868 0 29.4455 0.982187 28.7513 2.39787C17.3721 3.84683 7.74249 11.6719 4.14355 22.8105L8.20393 24.1229C11.2608 14.6605 19.3956 7.98528 29.0361 6.65835C29.8033 7.78965 31.0991 8.53333 32.5694 8.53333C34.9256 8.53333 36.836 6.62293 36.836 4.26667C36.836 1.9104 34.9258 0 32.5696 0Z" fill="white"/>
</svg>
