<svg width="102" height="101" viewBox="0 0 102 101" fill="none" xmlns="http://www.w3.org/2000/svg">
<path d="M49.6658 25.9445C48.2939 25.9445 47.1804 27.0435 47.1804 28.3975V50.6215L34.0766 60.1834C32.9731 60.988 32.7394 62.5236 33.5547 63.6127C34.0418 64.2652 34.7925 64.6087 35.553 64.6087C36.065 64.6087 36.582 64.4517 37.0294 64.1279L51.1474 53.8301C51.7837 53.3689 52.1565 52.6331 52.1565 51.8579L52.1516 28.3968C52.1516 27.0428 51.0428 25.9445 49.6658 25.9445Z" fill="white"/>
<path d="M101.334 22.2308C101.334 10.4563 91.6256 0.869629 79.695 0.869629C74.555 0.869629 69.8326 2.65056 66.1141 5.61371C60.8399 3.7838 55.322 2.84674 49.6648 2.84674C22.2891 2.84674 0.0189694 24.8208 0.00497101 51.8337C0.00497101 51.8435 0 51.8484 0 51.8582C0 51.868 3.18221e-07 51.8729 0.00497101 51.8827C0.0198843 78.8956 22.2903 100.87 49.6648 100.87C77.0455 100.87 99.3246 78.8805 99.3246 51.8589C99.3246 46.2856 98.3751 40.835 96.5259 35.6295C99.5284 31.9647 101.334 27.3036 101.334 22.2308ZM70.3403 21.4507C71.26 20.445 72.8308 20.3665 73.8498 21.2741L78.9949 25.8514L84.274 15.2543C84.8805 14.0376 86.3668 13.5372 87.5997 14.1358C88.8325 14.7343 89.3395 16.2012 88.733 17.4179L82.0023 30.9294C81.6593 31.6212 81.008 32.1118 80.2425 32.254C80.0884 32.2835 79.9294 32.2982 79.7753 32.2982C79.1638 32.2982 78.5723 32.0774 78.11 31.6653L70.5243 24.9097C69.5052 24.007 69.4207 22.4565 70.3403 21.4507ZM52.1514 95.8944V89.1094C52.1514 87.7554 51.0379 86.6564 49.6659 86.6564C48.2939 86.6564 47.1804 87.7554 47.1804 89.1094V95.8944C24.5133 94.663 6.29888 76.6822 5.05176 54.3163H11.9266C13.2986 54.3163 14.4121 53.2173 14.4121 51.8633C14.4121 50.5093 13.2986 49.4103 11.9266 49.4103H5.05176C6.29948 27.0394 24.5133 9.06306 47.1804 7.83223V14.6172C47.1804 15.9713 48.2939 17.0702 49.6659 17.0702C51.0379 17.0702 52.1514 15.9713 52.1514 14.6172V7.83223C55.6062 8.01866 58.9964 8.59267 62.2872 9.54936C59.6227 13.1013 58.042 17.4873 58.042 22.2319C58.042 34.0113 67.7504 43.593 79.686 43.593C84.4929 43.593 88.937 42.0378 92.5365 39.4082C93.5058 42.656 94.0875 46.0019 94.2764 49.4116H87.4065C86.0345 49.4116 84.921 50.5105 84.921 51.8646C84.921 53.2186 86.0345 54.3175 87.4065 54.3175H94.2813C93.0336 76.6847 74.8198 94.6648 52.1526 95.8956L52.1514 95.8944Z" fill="white"/>
</svg>
