<svg width="205" height="103" viewBox="0 0 205 103" fill="none" xmlns="http://www.w3.org/2000/svg">
<rect y="0.777832" width="204.367" height="102.183" fill="white"/>
<path fill-rule="evenodd" clip-rule="evenodd" d="M74.4941 79.1814H76.3062V86.8463H78.09V79.1814H79.8565V77.4663H74.4941V79.1814ZM80.6713 77.4663V86.8463H82.4609V82.8229H85.7944V86.8463H87.5725V77.4663H85.7944V81.2788H82.4609V77.4663H80.6713ZM89.3332 77.4663V86.8463H94.3878V85.0908H91.0312V82.9939H94.2966V81.3983H91.0312V79.1814H94.5015V77.4663H89.3332ZM98.5363 77.4663H96.0119V86.8463H97.7784V83.1593L100.223 86.8463H102.394L99.8243 83.2958C100.742 83.1593 101.26 82.7145 101.705 82.2072C102.064 81.6776 102.263 81.0449 102.263 80.458C102.263 79.8142 102.064 79.1814 101.779 78.6859C101.443 78.2926 100.975 77.9392 100.462 77.7286C99.9383 77.5803 99.2601 77.4663 98.5363 77.4663ZM97.7499 79.1814H98.6958C99.9383 79.1814 100.548 79.6488 100.548 80.458C100.548 81.3983 100.075 81.8597 98.8327 81.8597H97.7499V79.1814ZM103.42 86.8463H105.067V79.8142L107.625 86.8463H109.073L111.512 79.8142V86.8463H113.278V77.4663H110.834L108.264 84.612L105.745 77.4663H103.42V86.8463ZM118.105 77.4663L114.099 86.8463H116.071L117.108 84.4015H120.43L121.507 86.8463L122.835 85.0227L119.393 77.4663H118.105ZM118.715 80.0021L119.763 82.686H117.763L118.715 80.0021ZM125.314 82.2072L122.071 86.8463H124.026L126.265 83.5752L128.545 86.8463H130.636L127.314 82.2072L130.63 77.4663H128.545L126.265 80.72L124.049 77.4663H122.071L125.314 82.2072Z" fill="#161413"/>
<path fill-rule="evenodd" clip-rule="evenodd" d="M100.953 22.2873V71.5905L87.9465 71.6819V43.7843H74.3154V17.0342L95.069 17.115C95.069 17.115 95.3221 17.115 95.5162 17.115C98.4311 17.115 100.758 19.3562 100.953 22.2873Z" fill="#E20010"/>
<path fill-rule="evenodd" clip-rule="evenodd" d="M103.224 22.2011V71.6819H116.289V43.7843H130.038V17.0342H109.085C108.989 17.0342 108.735 17.0342 108.573 17.0342C105.653 17.0342 103.293 19.27 103.224 22.2011Z" fill="#E20010"/>
</svg>
