<svg width="99" height="89" viewBox="0 0 99 89" fill="none" xmlns="http://www.w3.org/2000/svg">
<path d="M82.7761 48.2877C84.2084 44.4739 85.0301 40.3713 85.0301 36.0696C85.0301 16.6611 69.076 0.869629 49.4676 0.869629C29.8591 0.869629 13.9051 16.6611 13.9051 36.0696C13.9051 40.3689 14.7267 44.4739 16.159 48.2877L0.629214 65.3512C0.0381404 66.0018 -0.153161 66.917 0.126434 67.7448C0.406028 68.5726 1.11483 69.1916 1.98304 69.3567L17.4123 72.3329L22.0084 87.1533C22.2659 87.9908 22.9625 88.622 23.8233 88.8138C23.9999 88.8526 24.1789 88.8696 24.3531 88.8696C25.0398 88.8696 25.7069 88.5832 26.1753 88.0661L42.1343 70.5074C44.5035 71.0002 46.9537 71.2696 49.4676 71.2696C51.9815 71.2696 54.434 71.0026 56.8008 70.5074L72.7598 88.0661C73.2282 88.5832 73.8953 88.8696 74.582 88.8696C74.7562 88.8696 74.9352 88.8502 75.1118 88.8138C75.9751 88.6245 76.6692 87.9908 76.9267 87.1533L81.5229 72.3329L96.9521 69.3567C97.8203 69.1916 98.5291 68.575 98.8087 67.7448C99.0883 66.9145 98.897 65.9993 98.3059 65.3512L82.7761 48.2877ZM25.4249 81.633L21.6699 69.5169C21.4051 68.6575 20.684 68.0167 19.7937 67.8467L7.17271 65.4143L18.3712 53.1113C22.4401 60.3552 29.0203 66.0091 36.9348 68.9731L25.4249 81.633ZM18.8102 36.0696C18.8102 19.3363 32.5619 5.7248 49.4676 5.7248C66.3732 5.7248 80.1249 19.3363 80.1249 36.0696C80.1249 52.803 66.3732 66.4145 49.4676 66.4145C32.5619 66.4145 18.8102 52.803 18.8102 36.0696ZM79.1414 67.8443C78.2536 68.0142 77.5325 68.6575 77.2652 69.5145L73.5103 81.6306L62.0003 68.9683C69.9148 66.0042 76.4951 60.3504 80.5639 53.1064L91.7624 65.4094L79.1414 67.8443Z" fill="white"/>
<path d="M72.476 29.3111C71.8653 27.4491 70.1264 26.2014 68.1496 26.2014H57.1792L53.7897 15.8768C53.179 14.0149 51.4426 12.7671 49.4658 12.7671C47.489 12.7671 45.7501 14.0173 45.1419 15.8768L41.7524 26.2014H30.782C28.8052 26.2014 27.0663 27.4516 26.4556 29.3111C25.8474 31.173 26.5096 33.1952 28.1087 34.3386L36.9846 40.7232L33.5927 51.0453C32.982 52.9072 33.6442 54.9318 35.2457 56.0801C36.0428 56.653 36.9797 56.9394 37.9166 56.9394C38.8535 56.9394 39.7903 56.653 40.5899 56.0777L49.4633 49.6955L58.3368 56.0777C59.9359 57.2308 62.0844 57.2283 63.681 56.0777C65.2801 54.927 65.9447 52.9024 65.334 51.0428L61.9421 40.7207L70.8156 34.3386C72.4146 33.1904 73.0793 31.1682 72.4711 29.3087L72.476 29.3111ZM58.8543 36.9483C57.2577 38.0965 56.593 40.1187 57.2013 41.9807L60.3308 51.5089L52.1342 45.6148C50.5376 44.4665 48.3916 44.4714 46.7925 45.6196L38.6008 51.5089L41.7303 41.9782C42.3386 40.1163 41.6764 38.0941 40.0773 36.9483L31.8857 31.0565H42.0099C43.9867 31.0565 45.7256 29.8063 46.3363 27.9468L49.4633 18.4185L52.5904 27.9492C53.2011 29.8087 54.94 31.0565 56.9168 31.0565H67.041L58.8494 36.9483H58.8543Z" fill="white"/>
</svg>
