<svg width="40" height="40" viewBox="0 0 40 40" fill="none" xmlns="http://www.w3.org/2000/svg">
<path d="M38.6207 24.7322H33.1034V19.324H30.3448V31.4926H8.27586V9.85948L20.6897 9.85827V7.15535H15.1724V1.74707H12.4138V7.15535H8.27586C7.54445 7.15606 6.84321 7.44119 6.32603 7.94816C5.80885 8.45513 5.51797 9.14252 5.51724 9.85948V13.9157H0V16.6198H5.51724V24.7322H0V27.4364H5.51724V31.4926C5.51808 32.2095 5.80899 32.8968 6.32615 33.4038C6.84331 33.9107 7.54449 34.1959 8.27586 34.1967H12.4138V39.605H15.1724V34.1967H23.4483V39.605H26.2069V34.1967H30.3448C31.0762 34.1958 31.7773 33.9105 32.2944 33.4036C32.8115 32.8967 33.1025 32.2095 33.1034 31.4926V27.4364H38.6207V24.7322Z" fill="black"/>
<path d="M26.2072 27.4362H12.4141V13.9155H26.2072V27.4362ZM15.1727 24.7321H23.4485V16.6197H15.1727V24.7321Z" fill="black"/>
<path d="M40 16.6198H37.2413C37.2371 13.0352 35.7825 9.59861 33.1967 7.0639C30.6109 4.52919 27.1051 3.10334 23.4482 3.09916V0.39502C27.8366 0.399708 32.0438 2.11061 35.1468 5.15234C38.2498 8.19407 39.9952 12.3182 40 16.6198Z" fill="black"/>
<path d="M33.1034 16.6198H30.3448C30.3426 14.8274 29.6154 13.1092 28.3225 11.8418C27.0296 10.5744 25.2767 9.86152 23.4482 9.85941V7.15527C26.008 7.15831 28.462 8.15644 30.2721 9.93072C32.0821 11.705 33.1003 14.1106 33.1034 16.6198Z" fill="black"/>
</svg>
