<svg width="40" height="40" viewBox="0 0 40 40" fill="none" xmlns="http://www.w3.org/2000/svg">
<path d="M7.69276 35.4042C8.54243 35.4042 9.23122 34.7773 9.23122 34.0039C9.23122 33.2305 8.54243 32.6035 7.69276 32.6035C6.84309 32.6035 6.1543 33.2305 6.1543 34.0039C6.1543 34.7773 6.84309 35.4042 7.69276 35.4042Z" fill="black"/>
<path d="M3.07692 39.6047H36.9231C38.6154 39.6047 40 38.3444 40 36.804V31.2026C40 29.6622 38.6154 28.4019 36.9231 28.4019H3.07692C1.38462 28.4019 0 29.6622 0 31.2026V36.804C0 38.3444 1.38462 39.6047 3.07692 39.6047ZM3.07692 31.2026H36.9231V36.804H3.07692V31.2026Z" fill="black"/>
<path d="M30.7692 25.6014H9.23077C4.13846 25.6014 0 21.8345 0 17.1993C0 12.9282 3.52308 9.38531 8.07692 8.86718C9.43077 3.96593 14.3538 0.39502 20 0.39502C25.6462 0.39502 30.5692 3.96593 31.9231 8.86718C36.4769 9.38531 40 12.9282 40 17.1993C40 21.8345 35.8615 25.6014 30.7692 25.6014ZM9.15385 11.5979C5.8 11.6399 3.07692 14.1325 3.07692 17.1993C3.07692 20.2941 5.83077 22.8007 9.23077 22.8007H30.7692C34.1692 22.8007 36.9231 20.2941 36.9231 17.1993C36.9231 14.1325 34.2154 11.6399 30.8615 11.5979L30.6769 11.6119L29.3231 11.6399L29.1385 10.4076C28.4769 6.29052 24.5538 3.19573 20 3.19573C15.4462 3.19573 11.5231 6.29052 10.8769 10.4076L10.6923 11.6399L9.15385 11.5979Z" fill="black"/>
</svg>
