<svg width="23" height="22" viewBox="0 0 23 22" fill="none" xmlns="http://www.w3.org/2000/svg">
<path d="M16.1671 18.8567C17.035 18.8567 17.7385 18.1531 17.7385 17.2853C17.7385 16.4174 17.035 15.7139 16.1671 15.7139C15.2992 15.7139 14.5957 16.4174 14.5957 17.2853C14.5957 18.1531 15.2992 18.8567 16.1671 18.8567Z" fill="white"/>
<path d="M22.2749 16.8758C21.7894 15.6391 20.9516 14.572 19.8655 13.8069C18.7793 13.0417 17.4925 12.6121 16.1646 12.5713C14.8366 12.6121 13.5498 13.0417 12.4636 13.8069C11.3775 14.572 10.5397 15.6391 10.0542 16.8758L9.87891 17.2855L10.0542 17.6953C10.5397 18.932 11.3775 19.999 12.4636 20.7642C13.5498 21.5293 14.8366 21.9589 16.1646 21.9998C17.4925 21.9589 18.7793 21.5293 19.8655 20.7642C20.9516 19.999 21.7894 18.932 22.2749 17.6953L22.4502 17.2855L22.2749 16.8758ZM16.1646 20.4284C15.543 20.4284 14.9353 20.244 14.4185 19.8987C13.9017 19.5534 13.4988 19.0625 13.261 18.4882C13.0231 17.914 12.9609 17.282 13.0821 16.6724C13.2034 16.0627 13.5027 15.5027 13.9422 15.0632C14.3818 14.6237 14.9418 14.3244 15.5514 14.2031C16.1611 14.0818 16.793 14.1441 17.3673 14.3819C17.9415 14.6198 18.4324 15.0226 18.7777 15.5395C19.1231 16.0563 19.3074 16.6639 19.3074 17.2855C19.3064 18.1188 18.975 18.9176 18.3858 19.5068C17.7966 20.096 16.9978 20.4274 16.1646 20.4284Z" fill="white"/>
<path d="M7.836 14.7721C7.19331 14.2898 6.68455 13.6513 6.35802 12.9172C6.03148 12.183 5.89801 11.3776 5.97028 10.5773C6.04255 9.77709 6.31816 9.0086 6.77094 8.34482C7.22372 7.68105 7.83864 7.14401 8.55733 6.78471C9.27602 6.42541 10.0746 6.25576 10.8773 6.29187C11.68 6.32799 12.4601 6.56867 13.1436 6.99106C13.8272 7.41346 14.3914 8.00355 14.7827 8.7053C15.1741 9.40706 15.3795 10.1972 15.3796 11.0007H13.8082C13.8082 10.465 13.6713 9.93816 13.4104 9.47026C13.1495 9.00235 12.7734 8.60889 12.3177 8.32725C11.862 8.04561 11.3418 7.88513 10.8067 7.86105C10.2715 7.83697 9.73906 7.95009 9.2599 8.18967C8.78074 8.42925 8.37077 8.78733 8.06893 9.22992C7.76709 9.67251 7.5834 10.1849 7.53529 10.7185C7.48717 11.252 7.57625 11.789 7.79405 12.2784C8.01185 12.7679 8.35114 13.1935 8.77972 13.515L7.836 14.7721Z" fill="white"/>
<path d="M21.1176 7.10585L19.2629 3.89404C19.0815 3.5792 18.7965 3.33704 18.4565 3.20886C18.1166 3.08068 17.7426 3.07442 17.3985 3.19115L15.4861 3.83802C15.1565 3.61605 14.8121 3.41698 14.4552 3.24222L14.0595 1.26334C13.9882 0.907055 13.7957 0.586465 13.5147 0.356129C13.2337 0.125792 12.8816 -5.66961e-05 12.5183 1.91611e-08H8.80975C8.44647 1.59673e-05 8.09442 0.125898 7.8135 0.356229C7.53257 0.586559 7.34012 0.907108 7.2689 1.26334L6.87314 3.24222C6.51225 3.41511 6.16383 3.61293 5.83043 3.83425L3.92949 3.19115C3.58541 3.07442 3.21149 3.08068 2.87151 3.20886C2.53153 3.33704 2.24654 3.5792 2.06517 3.89404L0.210433 7.10585C0.0288547 7.4205 -0.0381291 7.78834 0.0208723 8.1468C0.0798737 8.50526 0.261217 8.83222 0.534065 9.07208L2.05119 10.4053C2.03775 10.6028 2.02125 10.7992 2.02125 10.9999C2.02125 11.2024 2.02911 11.4027 2.04309 11.6014L0.534065 12.9277C0.261217 13.1676 0.0798737 13.4945 0.0208723 13.853C-0.0381291 14.2114 0.0288547 14.5793 0.210433 14.8939L2.06517 18.1057C2.24654 18.4206 2.53153 18.6627 2.87151 18.7909C3.21149 18.9191 3.58541 18.9254 3.92949 18.8086L5.84198 18.1618C6.17146 18.3839 6.5159 18.583 6.87283 18.7576L7.26859 20.7364C7.33982 21.0927 7.53231 21.4133 7.8133 21.6436C8.09429 21.874 8.44642 21.9998 8.80975 21.9998H9.87831V20.4284H8.80975L8.2519 17.6385C7.4803 17.352 6.76399 16.9343 6.13458 16.4039L3.42641 17.32L1.57214 14.1082L3.71272 12.2264C3.56625 11.4139 3.56439 10.5819 3.70722 9.76877L1.57143 7.89156L3.42656 4.67975L6.11894 5.59046C6.75274 5.05963 7.47442 4.64365 8.25143 4.3613L8.80975 1.57141H12.5183L13.0761 4.3613C13.8477 4.64786 14.564 5.06552 15.1935 5.59588L17.9016 4.67975L19.7559 7.89156L17.5577 9.81826L18.5936 10.9999L20.7936 9.07208C21.0665 8.83227 21.2479 8.50534 21.307 8.14687C21.3661 7.78841 21.2991 7.42055 21.1176 7.10585Z" fill="white"/>
</svg>
