<svg width="26" height="41" viewBox="0 0 26 41" fill="none" xmlns="http://www.w3.org/2000/svg">
<path d="M4.81585 40.3948L6.14916 37.5376H18.9962L20.3296 40.3948H23.4828L14.0017 20.077V13.2515H11.1445V20.077L1.66309 40.3948H4.81585ZM12.5731 23.7726L14.9967 28.966H10.1495L12.5731 23.7726ZM8.81593 31.8232H16.3303L17.6637 34.6804H7.4829L8.81593 31.8232Z" fill="black"/>
<path d="M5.11914 10.8698C6.05721 9.82142 7.20591 8.98275 8.49018 8.40857C9.77445 7.83438 11.1654 7.5376 12.5722 7.5376C13.979 7.5376 15.3699 7.83438 16.6542 8.40857C17.9385 8.98275 19.0872 9.82142 20.0253 10.8698L17.8967 12.7755C17.2267 12.0264 16.4061 11.4271 15.4887 11.0168C14.5712 10.6065 13.5775 10.3944 12.5725 10.3944C11.5675 10.3944 10.5738 10.6065 9.65631 11.0168C8.73886 11.4271 7.91832 12.0264 7.24832 12.7755L5.11914 10.8698Z" fill="black"/>
<path d="M0 6.67961C1.46408 4.72825 3.36231 3.14448 5.5444 2.05369C7.72649 0.962894 10.1325 0.39502 12.5721 0.39502C15.0116 0.39502 17.4177 0.962894 19.5998 2.05369C21.7818 3.14448 23.6801 4.72825 25.1442 6.67961L22.8587 8.39478C21.6609 6.79779 20.1078 5.50161 18.3223 4.60887C16.5368 3.71613 14.568 3.25136 12.5718 3.25136C10.5756 3.25136 8.60674 3.71613 6.82125 4.60887C5.03576 5.50161 3.48264 6.79779 2.2849 8.39478L0 6.67961Z" fill="black"/>
</svg>
