<svg width="206" height="103" viewBox="0 0 206 103" fill="none" xmlns="http://www.w3.org/2000/svg">
<rect x="0.733398" y="0.777832" width="204.367" height="102.183" fill="white"/>
<path fill-rule="evenodd" clip-rule="evenodd" d="M104.103 72.3579C103.712 72.3768 103.329 72.386 102.95 72.3895H102.883C102.505 72.386 102.121 72.3768 101.731 72.3579L101.715 72.3336L98.8734 71.9807L29.1182 63.2645L29.0139 63.2423C28.4182 63.1222 27.996 63.0133 27.6592 62.8834C24.3984 61.9112 24.3952 58.7472 24.3945 57.6876C24.3913 53.4166 24.3906 50.0346 24.3906 45.765V45.007C24.3906 40.7378 24.3913 36.4678 24.3945 32.1986C24.3952 31.1372 24.3984 27.9736 27.6592 27.0011C27.996 26.8708 28.4186 26.7608 29.0139 26.64L29.1182 26.6182L101.697 17.549C101.697 17.549 102.5 17.4728 102.883 17.4683H102.95C103.334 17.4728 104.136 17.5522 104.136 17.5522L176.715 26.6175L176.819 26.6393C177.415 26.7605 177.838 26.8704 178.172 27.0004C181.436 27.9733 181.439 31.1365 181.439 32.1965C181.442 36.4675 181.444 40.7371 181.444 45.0067V45.5774C181.444 49.8467 181.442 53.4162 181.439 57.6876C181.439 58.7472 181.436 61.9112 178.172 62.8834C177.838 63.0133 177.415 63.1226 176.819 63.2423L176.715 63.2645L104.118 72.3368L104.103 72.3579Z" fill="white"/>
<path d="M102.952 72.8226H102.884C102.496 72.8198 102.107 72.8103 101.71 72.7903L101.458 72.7369L98.8202 72.4099L28.9252 63.6667C28.2761 63.535 27.8501 63.4204 27.5024 63.287C23.9641 62.2326 23.9619 58.8109 23.9612 57.6866L23.957 45.006L23.9612 32.1976C23.9619 31.0726 23.9644 27.6505 27.5354 26.5849C27.8557 26.4592 28.2818 26.3447 28.928 26.2144L29.0654 26.1866L101.643 17.1178C101.656 17.1164 102.482 17.0387 102.878 17.0342C103.351 17.0387 104.179 17.1195 104.179 17.1195L176.907 26.2144C177.554 26.3461 177.979 26.4592 178.329 26.5954C180.669 27.2923 181.872 29.1795 181.872 32.1958L181.877 45.5768L181.872 57.6869C181.872 60.7033 180.669 62.5905 178.297 63.2982C177.985 63.4208 177.559 63.5353 176.906 63.667L176.769 63.6948L104.123 72.7906C103.727 72.8107 103.338 72.8201 102.954 72.8229H102.952V72.8226ZM101.977 71.935C102.285 71.9473 102.588 71.9533 102.887 71.9554L102.95 72.3888L102.946 71.9554C103.278 71.9533 103.613 71.9463 103.953 71.9312L104.064 71.9055L176.661 62.8335C177.337 62.6955 177.72 62.5954 178.017 62.4788C180.697 61.6776 181.004 59.3602 181.004 57.6869L181.009 45.006L181.004 32.1958C181.004 30.5226 180.697 28.2051 178.049 27.4145C177.717 27.2877 177.322 27.1823 176.732 27.0629L176.626 27.0412L104.083 17.9808C104.081 17.9808 103.314 17.9052 102.945 17.9007C102.517 17.9052 101.738 17.9793 101.738 17.9793L29.1718 27.0478C28.5125 27.1827 28.116 27.2881 27.8157 27.404C25.1361 28.2051 24.8288 30.5226 24.827 32.1976L24.8232 45.764L24.827 57.6866C24.8284 59.3619 25.1358 61.6769 27.783 62.4672C28.1142 62.5947 28.4988 62.6948 29.0998 62.8174L29.2066 62.8392L101.977 71.935Z" fill="#1D6399"/>
<path fill-rule="evenodd" clip-rule="evenodd" d="M86.8252 70.4456C86.8259 70.4456 86.8267 70.4431 86.8274 70.4431C86.8267 70.4394 86.8252 70.4364 86.8252 70.4331V70.4456Z" fill="#1D6399"/>
<path fill-rule="evenodd" clip-rule="evenodd" d="M86.8125 70.4365C86.8162 70.4392 86.8206 70.4425 86.8243 70.4445C86.8243 70.4445 86.8229 70.4365 86.8236 70.4331C86.8199 70.4365 86.8162 70.4365 86.8125 70.4365Z" fill="#1D6399"/>
<path fill-rule="evenodd" clip-rule="evenodd" d="M107.936 26.1889C107.928 26.1921 107.922 26.1935 107.914 26.1953C107.914 26.1907 107.914 26.1843 107.914 26.1782C107.92 26.1825 107.929 26.1843 107.936 26.1889Z" fill="#1D6399"/>
<path d="M37.0791 36.4819H43.5748C44.4796 36.4819 45.3362 36.5659 46.1434 36.7303C46.9498 36.8943 47.6537 37.1774 48.255 37.5823C48.8559 37.9849 49.3333 38.5286 49.6873 39.2117C50.041 39.8949 50.2187 40.7547 50.2187 41.7926C50.2187 42.8136 50.054 43.6703 49.7249 44.3611C49.3954 45.0531 48.9423 45.6042 48.366 46.0161C47.7896 46.4285 47.1064 46.7193 46.3165 46.8928C45.5266 47.0663 44.6696 47.1534 43.748 47.1534H40.9321V53.9698H37.0791V36.4819ZM40.9318 43.8922H43.5003C43.8463 43.8922 44.1796 43.8592 44.5006 43.7928C44.822 43.7279 45.1093 43.6162 45.3647 43.4599C45.6204 43.3032 45.8259 43.0883 45.9825 42.8182C46.1388 42.546 46.2168 42.2053 46.2168 41.7929C46.2168 41.349 46.1139 40.9911 45.9087 40.7178C45.7026 40.4466 45.4391 40.2373 45.1178 40.0884C44.7971 39.9398 44.4388 39.8457 44.0433 39.8039C43.6482 39.7628 43.2696 39.7414 42.9075 39.7414H40.9318V43.8922Z" fill="#1D6399"/>
<path d="M51.7002 45.2266C51.7002 43.8255 51.9348 42.5586 52.4041 41.4209C52.8737 40.2854 53.528 39.3192 54.3678 38.5208C55.2076 37.7214 56.2037 37.1085 57.3561 36.6804C58.5088 36.2533 59.7684 36.0376 61.135 36.0376C62.5013 36.0376 63.7619 36.2533 64.9143 36.6804C66.0663 37.1085 67.0635 37.7214 67.9029 38.5208C68.7424 39.3188 69.3967 40.2851 69.8663 41.4209C70.3356 42.5586 70.5705 43.8255 70.5705 45.2266C70.5705 46.6266 70.3359 47.8938 69.8663 49.0293C69.3967 50.1652 68.742 51.1329 67.9029 51.9312C67.0631 52.7306 66.0663 53.3439 64.9143 53.7717C63.7619 54.1988 62.5013 54.413 61.135 54.413C59.7684 54.413 58.5088 54.1988 57.3561 53.7717C56.2037 53.3439 55.2076 52.7306 54.3678 51.9312C53.528 51.1332 52.8737 50.1656 52.4041 49.0293C51.9348 47.8938 51.7002 46.6269 51.7002 45.2266ZM55.7014 45.2266C55.7014 46.0502 55.8286 46.8032 56.0839 47.485C56.3389 48.1699 56.7056 48.7614 57.1829 49.2633C57.6603 49.7666 58.2328 50.1579 58.8998 50.4378C59.5664 50.7167 60.311 50.8558 61.1343 50.8558C61.9576 50.8558 62.7026 50.7167 63.3699 50.4378C64.0365 50.1579 64.6084 49.7666 65.086 49.2633C65.5634 48.761 65.9297 48.1699 66.1854 47.485C66.4404 46.8036 66.5682 46.0502 66.5682 45.2266C66.5682 44.4191 66.4404 43.6702 66.1854 42.978C65.9297 42.2853 65.5634 41.6907 65.086 41.1874C64.6084 40.6855 64.0365 40.2938 63.3699 40.0146C62.7029 39.7354 61.958 39.5942 61.1343 39.5942C60.3107 39.5942 59.5664 39.7354 58.8998 40.0146C58.2328 40.2935 57.6603 40.6855 57.1829 41.1874C56.7053 41.691 56.3386 42.2853 56.0839 42.978C55.8286 43.6706 55.7014 44.4194 55.7014 45.2266Z" fill="#1D6399"/>
<path d="M71.3594 36.4819H75.5587L78.3493 47.695H78.3991L82.0544 36.4819H85.6352L89.2659 47.9925H89.3155L92.2546 36.4819H96.1571L91.0449 53.9698H87.6116L83.759 41.8674H83.7098L79.8568 53.9698H76.5467L71.3594 36.4819Z" fill="#1D6399"/>
<path d="M98.0342 36.4819H109.913V40.0389H101.887V43.2983H109.47V46.8556H101.887V50.4125H110.36V53.9698H98.0342V36.4819Z" fill="#1D6399"/>
<path d="M113.446 36.4819H120.213C121.102 36.4819 121.947 36.569 122.744 36.7425C123.544 36.9147 124.242 37.2023 124.844 37.6069C125.444 38.0094 125.922 38.5528 126.276 39.2363C126.632 39.9194 126.808 40.7715 126.808 41.7926C126.808 43.0279 126.487 44.0766 125.845 44.9407C125.203 45.8051 124.264 46.3533 123.029 46.5823L127.474 53.9695H122.856L119.202 46.9796H117.299V53.9695H113.447V36.4819H113.446ZM117.298 43.7201H119.571C119.917 43.7201 120.282 43.7078 120.669 43.6826C121.057 43.658 121.408 43.5839 121.72 43.4599C122.031 43.3355 122.292 43.1438 122.498 42.8793C122.704 42.6169 122.806 42.2453 122.806 41.768C122.806 41.3237 122.716 40.9686 122.535 40.7055C122.354 40.4421 122.123 40.2405 121.843 40.101C121.563 39.9623 121.242 39.8661 120.88 39.8165C120.518 39.7663 120.163 39.7421 119.818 39.7421H117.298L117.298 43.7201Z" fill="#1D6399"/>
<path d="M129.4 36.4819H133.253V53.9698H129.4V36.4819Z" fill="#1D6399"/>
<path d="M148.195 41.0276C147.817 40.5657 147.352 40.2124 146.801 39.9651C146.248 39.7168 145.611 39.5942 144.886 39.5942C144.161 39.5942 143.49 39.7354 142.874 40.0146C142.256 40.2935 141.721 40.6855 141.267 41.1874C140.815 41.691 140.462 42.2853 140.206 42.978C139.95 43.6702 139.823 44.4191 139.823 45.2266C139.823 46.0502 139.95 46.8032 140.206 47.485C140.462 48.1699 140.811 48.7614 141.254 49.2633C141.7 49.7666 142.223 50.1579 142.824 50.4378C143.425 50.7167 144.071 50.8558 144.762 50.8558C145.553 50.8558 146.253 50.6917 146.861 50.3637C147.472 50.0349 147.974 49.5731 148.369 48.9802L151.579 51.3766C150.839 52.4135 149.9 53.1795 148.764 53.6723C147.629 54.1665 146.458 54.413 145.257 54.413C143.89 54.413 142.63 54.1988 141.478 53.7717C140.325 53.3439 139.329 52.7306 138.49 51.9312C137.649 51.1332 136.994 50.1656 136.525 49.0293C136.057 47.8938 135.821 46.6266 135.821 45.2266C135.821 43.8255 136.057 42.5586 136.525 41.4209C136.994 40.2854 137.649 39.3192 138.49 38.5208C139.329 37.7214 140.325 37.1085 141.478 36.6804C142.63 36.2533 143.89 36.0376 145.257 36.0376C145.751 36.0376 146.265 36.0822 146.801 36.1742C147.335 36.2655 147.862 36.4081 148.381 36.6062C148.9 36.8047 149.397 37.0681 149.874 37.3958C150.354 37.7246 150.781 38.1292 151.159 38.6065L148.195 41.0276Z" fill="#1D6399"/>
<path d="M159.435 36.4819H162.62L170.227 53.9698H165.882L164.374 50.264H157.582L156.125 53.9698H151.877L159.435 36.4819ZM160.916 41.5695L158.792 47.0045H163.065L160.916 41.5695Z" fill="#1D6399"/>
<path d="M32.9562 78.749H34.1841L37.6202 86.7259H35.9982L35.2543 84.9005H31.796L31.0746 86.7259H29.4863L32.9562 78.749ZM34.759 83.6845L33.5301 80.4392L32.2797 83.6845H34.759Z" fill="#1D6399"/>
<path d="M43.4219 78.749H46.1035C46.4864 78.749 46.8559 78.787 47.2127 78.8607C47.5699 78.9376 47.8836 79.0627 48.154 79.24C48.4245 79.4164 48.6398 79.6517 48.8017 79.9492C48.9626 80.2456 49.0441 80.6151 49.0441 81.0577C49.0441 81.562 48.957 81.9677 48.7845 82.2758C48.6117 82.5824 48.3785 82.8219 48.0855 82.9902C47.793 83.1588 47.4526 83.274 47.0659 83.334C46.6796 83.3941 46.2753 83.4232 45.8556 83.4232H44.8416V86.7255H43.4219V78.749ZM45.6975 82.2076C45.9009 82.2076 46.1102 82.2002 46.3283 82.1848C46.5464 82.1711 46.7473 82.1265 46.9317 82.0496C47.1151 81.9762 47.2658 81.8624 47.3817 81.7117C47.4979 81.562 47.5569 81.3517 47.5569 81.0812C47.5569 80.8336 47.5046 80.6351 47.3989 80.4894C47.2935 80.3422 47.1586 80.2309 46.9939 80.1522C46.8281 80.0728 46.6441 80.0215 46.4414 79.9994C46.2384 79.9773 46.0431 79.966 45.8559 79.966H44.8419V82.2073L45.6975 82.2076Z" fill="#1D6399"/>
<path d="M51.0938 78.749H53.865C54.2478 78.749 54.618 78.7838 54.9742 78.8547C55.3317 78.9282 55.6489 79.0483 55.9264 79.2232C56.2045 79.3946 56.4258 79.6285 56.5916 79.9214C56.7567 80.2137 56.8396 80.5863 56.8396 81.0366C56.8396 81.6147 56.6798 82.0994 56.3605 82.4904C56.0412 82.8799 55.585 83.1173 54.9917 83.1998L57.1104 86.7262H55.3974L53.5503 83.3456H52.5138V86.7262H51.0941L51.0938 78.749ZM53.6174 82.1289C53.8207 82.1289 54.0227 82.1202 54.2257 82.1008C54.4284 82.0822 54.6142 82.0373 54.7831 81.9663C54.9517 81.895 55.0894 81.7847 55.1944 81.639C55.2994 81.4922 55.3524 81.2877 55.3524 81.0243C55.3524 80.7918 55.3033 80.6046 55.206 80.462C55.1087 80.319 54.9808 80.2119 54.8228 80.1389C54.6658 80.0679 54.4905 80.0212 54.2991 79.9994C54.1077 79.9773 53.9219 79.966 53.7417 79.966H52.5138V82.1286L53.6174 82.1289Z" fill="#1D6399"/>
<path d="M58.5518 82.7697C58.5518 82.1326 58.6571 81.5524 58.8675 81.0304C59.0776 80.5082 59.3687 80.0635 59.7407 79.6947C60.1123 79.3273 60.5552 79.0439 61.0697 78.8444C61.584 78.6463 62.1498 78.5458 62.7655 78.5458C63.3889 78.5384 63.96 78.6305 64.4781 78.8226C64.9965 79.0126 65.4429 79.2939 65.8184 79.6603C66.1939 80.0291 66.4868 80.4727 66.6972 80.99C66.9076 81.5092 67.0126 82.0862 67.0126 82.7251C67.0126 83.3493 66.9072 83.9165 66.6972 84.4262C66.4868 84.9369 66.1939 85.3777 65.8184 85.7447C65.4429 86.1135 64.9965 86.4001 64.4781 86.6073C63.96 86.8131 63.3889 86.9206 62.7655 86.928C62.1498 86.928 61.5843 86.8286 61.0697 86.6287C60.5555 86.4306 60.1123 86.1486 59.7407 85.7844C59.3687 85.4205 59.0776 84.9822 58.8675 84.4725C58.6571 83.9611 58.5518 83.3942 58.5518 82.7697ZM60.0389 82.6802C60.0389 83.109 60.1049 83.5031 60.2366 83.8642C60.3676 84.2253 60.5534 84.5364 60.7944 84.7974C61.0346 85.0615 61.3219 85.2688 61.6556 85.418C61.9903 85.568 62.3637 85.6439 62.7764 85.6439C63.1901 85.6439 63.5653 85.568 63.9035 85.418C64.241 85.2688 64.5304 85.0615 64.7714 84.7974C65.0116 84.5364 65.1971 84.2253 65.3288 83.8642C65.4602 83.5031 65.5258 83.109 65.5258 82.6802C65.5258 82.2822 65.4598 81.9103 65.3288 81.5647C65.1971 81.2194 65.0116 80.9166 64.7714 80.6585C64.5301 80.4 64.241 80.197 63.9035 80.0498C63.5653 79.9044 63.1901 79.8296 62.7764 79.8296C62.3637 79.8296 61.9903 79.9044 61.6556 80.0498C61.3219 80.197 61.0346 80.4 60.7944 80.6585C60.5534 80.9166 60.3676 81.2194 60.2366 81.5647C60.1046 81.9103 60.0389 82.2822 60.0389 82.6802Z" fill="#1D6399"/>
<path d="M69.1875 78.749H71.35L73.4796 84.3368L75.6309 78.749H77.7716V86.7259H76.4197V80.1013H76.3973L73.9752 86.7259H72.9836L70.5615 80.1013H70.5394V86.7259H69.1875V78.749Z" fill="#1D6399"/>
<path d="M80.3408 78.749H81.7605V86.7259H80.3408V78.749Z" fill="#1D6399"/>
<path d="M88.2044 80.4621C88.0544 80.2433 87.8528 80.0838 87.602 79.9834C87.3502 79.8804 87.0854 79.8295 86.8072 79.8295C86.6421 79.8295 86.4826 79.8502 86.3284 79.8868C86.1746 79.9247 86.0359 79.9848 85.9115 80.067C85.7875 80.1502 85.6878 80.258 85.6133 80.3876C85.5382 80.519 85.5002 80.6756 85.5002 80.8555C85.5002 81.1263 85.594 81.3328 85.7823 81.4754C85.9698 81.6183 86.2031 81.7413 86.4809 81.8474C86.758 81.9531 87.0625 82.0546 87.3934 82.1526C87.7232 82.2495 88.0274 82.3844 88.3059 82.5565C88.583 82.73 88.8162 82.959 89.0038 83.2446C89.192 83.5301 89.2855 83.9087 89.2855 84.3811C89.2855 84.81 89.2064 85.1844 89.0491 85.5026C88.891 85.8219 88.6789 86.0867 88.4127 86.2975C88.1461 86.5068 87.8363 86.6649 87.4829 86.7702C87.13 86.8759 86.7576 86.9283 86.3678 86.9283C85.8718 86.9283 85.3945 86.8447 84.9369 86.68C84.4785 86.5142 84.0841 86.2374 83.7539 85.8468L84.8245 84.81C84.9973 85.0741 85.2238 85.2785 85.5052 85.4243C85.7868 85.5715 86.0857 85.6438 86.4011 85.6438C86.5662 85.6438 86.731 85.6206 86.8967 85.5764C87.0618 85.5311 87.2121 85.464 87.3467 85.3734C87.4822 85.2828 87.5908 85.1686 87.6737 85.0313C87.7566 84.8918 87.7976 84.7313 87.7976 84.5504C87.7976 84.2575 87.7039 84.0331 87.5163 83.8754C87.3281 83.7173 87.0959 83.5838 86.8177 83.476C86.5395 83.3668 86.235 83.2632 85.9049 83.1652C85.5743 83.0675 85.2698 82.9341 84.9927 82.7655C84.7145 82.5965 84.4813 82.3703 84.2938 82.0897C84.1062 81.808 84.0121 81.4308 84.0121 80.9577C84.0121 80.5432 84.0964 80.1878 84.266 79.8864C84.4349 79.5865 84.6566 79.3367 84.9309 79.1369C85.2048 78.9388 85.5181 78.7902 85.8711 78.6922C86.2245 78.5946 86.5845 78.5454 86.9529 78.5454C87.3734 78.5454 87.7804 78.6104 88.1749 78.7375C88.57 78.865 88.9248 79.0754 89.2402 79.3673L88.2044 80.4621Z" fill="#1D6399"/>
<path d="M91.5498 78.749H96.8334V80.0324H92.9695V81.9941H96.6307V83.2775H92.9695V85.4411H97.0364V86.7255H91.5502L91.5498 78.749Z" fill="#1D6399"/>
<path d="M103.345 78.749H108.493V80.0324H104.765V82.1289H108.279V83.4123H104.765V86.7259H103.345V78.749Z" fill="#1D6399"/>
<path d="M110.171 82.7697C110.171 82.1326 110.277 81.5524 110.487 81.0304C110.697 80.5082 110.988 80.0635 111.359 79.6947C111.731 79.3273 112.174 79.0439 112.688 78.8444C113.202 78.6463 113.768 78.5458 114.385 78.5458C115.007 78.5384 115.579 78.6305 116.096 78.8226C116.615 79.0126 117.062 79.2939 117.438 79.6603C117.813 80.0291 118.105 80.4727 118.316 80.99C118.527 81.5092 118.632 82.0862 118.632 82.7251C118.632 83.3493 118.527 83.9165 118.316 84.4262C118.105 84.9369 117.813 85.3777 117.438 85.7447C117.062 86.1135 116.615 86.4001 116.096 86.6073C115.579 86.8131 115.007 86.9206 114.385 86.928C113.768 86.928 113.202 86.8286 112.688 86.6287C112.174 86.4306 111.731 86.1486 111.359 85.7844C110.987 85.4205 110.696 84.9822 110.487 84.4725C110.277 83.9611 110.171 83.3942 110.171 82.7697ZM111.659 82.6802C111.659 83.109 111.724 83.5031 111.855 83.8642C111.987 84.2253 112.173 84.5364 112.414 84.7974C112.653 85.0615 112.942 85.2688 113.277 85.418C113.609 85.568 113.985 85.6439 114.396 85.6439C114.811 85.6439 115.185 85.568 115.523 85.418C115.862 85.2688 116.15 85.0615 116.391 84.7974C116.63 84.5364 116.817 84.2253 116.948 83.8642C117.08 83.5031 117.146 83.109 117.146 82.6802C117.146 82.2822 117.08 81.9103 116.948 81.5647C116.817 81.2194 116.63 80.9166 116.391 80.6585C116.15 80.4 115.862 80.197 115.523 80.0498C115.185 79.9044 114.811 79.8296 114.396 79.8296C113.985 79.8296 113.61 79.9044 113.277 80.0498C112.942 80.197 112.653 80.4 112.414 80.6585C112.173 80.9166 111.987 81.2194 111.855 81.5647C111.724 81.9103 111.659 82.2822 111.659 82.6802Z" fill="#1D6399"/>
<path d="M120.772 78.749H123.544C123.928 78.749 124.298 78.7838 124.655 78.8547C125.011 78.9282 125.329 79.0483 125.606 79.2232C125.885 79.3946 126.106 79.6285 126.271 79.9214C126.436 80.2137 126.519 80.5863 126.519 81.0366C126.519 81.6147 126.36 82.0994 126.04 82.4904C125.721 82.8799 125.265 83.1173 124.672 83.1998L126.789 86.7262H125.076L123.229 83.3456H122.193V86.7262H120.772V78.749ZM123.296 82.1289C123.499 82.1289 123.702 82.1202 123.904 82.1008C124.107 82.0822 124.294 82.0373 124.462 81.9663C124.631 81.895 124.769 81.7847 124.875 81.639C124.979 81.4922 125.031 81.2877 125.031 81.0243C125.031 80.7918 124.983 80.6046 124.885 80.462C124.788 80.319 124.659 80.2119 124.503 80.1389C124.345 80.0679 124.17 80.0212 123.978 79.9994C123.787 79.9773 123.601 79.966 123.42 79.966H122.193V82.1286L123.296 82.1289Z" fill="#1D6399"/>
<path d="M132.78 78.749H135.462C135.847 78.749 136.216 78.787 136.573 78.8607C136.93 78.9376 137.242 79.0627 137.513 79.24C137.783 79.4164 138 79.6517 138.161 79.9492C138.322 80.2456 138.403 80.6151 138.403 81.0577C138.403 81.562 138.316 81.9677 138.144 82.2758C137.97 82.5824 137.739 82.8219 137.446 82.9902C137.152 83.1588 136.813 83.274 136.426 83.334C136.039 83.3941 135.636 83.4232 135.215 83.4232H134.202V86.7255H132.781L132.78 78.749ZM135.057 82.2076C135.259 82.2076 135.47 82.2002 135.689 82.1848C135.906 82.1711 136.107 82.1265 136.291 82.0496C136.474 81.9762 136.624 81.8624 136.742 81.7117C136.858 81.562 136.916 81.3517 136.916 81.0812C136.916 80.8336 136.863 80.6351 136.759 80.4894C136.654 80.3422 136.517 80.2309 136.353 80.1522C136.187 80.0728 136.003 80.0215 135.8 79.9994C135.599 79.9773 135.402 79.966 135.215 79.966H134.202V82.2073L135.057 82.2076Z" fill="#1D6399"/>
<path d="M140.024 82.7697C140.024 82.1326 140.13 81.5524 140.341 81.0304C140.55 80.5082 140.841 80.0635 141.213 79.6947C141.584 79.3273 142.027 79.0439 142.542 78.8444C143.056 78.6463 143.621 78.5458 144.239 78.5458C144.861 78.5384 145.432 78.6305 145.95 78.8226C146.469 79.0126 146.915 79.2939 147.292 79.6603C147.666 80.0291 147.959 80.4727 148.17 80.99C148.381 81.5092 148.486 82.0862 148.486 82.7251C148.486 83.3493 148.38 83.9165 148.17 84.4262C147.959 84.9369 147.666 85.3777 147.292 85.7447C146.915 86.1135 146.469 86.4001 145.95 86.6073C145.432 86.8131 144.86 86.9206 144.239 86.928C143.621 86.928 143.056 86.8286 142.542 86.6287C142.027 86.4306 141.584 86.1486 141.213 85.7844C140.841 85.4205 140.55 84.9822 140.341 84.4725C140.13 83.9611 140.024 83.3942 140.024 82.7697ZM141.513 82.6802C141.513 83.109 141.577 83.5031 141.709 83.8642C141.841 84.2253 142.027 84.5364 142.267 84.7974C142.507 85.0615 142.795 85.2688 143.129 85.418C143.462 85.568 143.838 85.6439 144.249 85.6439C144.663 85.6439 145.039 85.568 145.376 85.418C145.715 85.2688 146.003 85.0615 146.244 84.7974C146.484 84.5364 146.669 84.2253 146.801 83.8642C146.933 83.5031 146.999 83.109 146.999 82.6802C146.999 82.2822 146.933 81.9103 146.801 81.5647C146.669 81.2194 146.484 80.9166 146.244 80.6585C146.003 80.4 145.715 80.197 145.376 80.0498C145.039 79.9044 144.663 79.8296 144.249 79.8296C143.837 79.8296 143.462 79.9044 143.129 80.0498C142.795 80.197 142.507 80.4 142.267 80.6585C142.027 80.9166 141.841 81.2194 141.709 81.5647C141.577 81.9103 141.513 82.2822 141.513 82.6802Z" fill="#1D6399"/>
<path d="M149.736 78.749H151.292L152.79 84.4948H152.812L154.604 78.749H156L157.758 84.4948H157.78L159.347 78.749H160.789L158.469 86.7259H157.116L155.269 80.6524H155.246L153.398 86.7259H152.092L149.736 78.749Z" fill="#1D6399"/>
<path d="M162.467 78.749H167.751V80.0324H163.887V81.9941H167.548V83.2775H163.887V85.4411H167.954V86.7255H162.467V78.749Z" fill="#1D6399"/>
<path d="M170.139 78.749H172.911C173.295 78.749 173.664 78.7838 174.021 78.8547C174.377 78.9282 174.695 79.0483 174.973 79.2232C175.251 79.3946 175.473 79.6285 175.638 79.9214C175.803 80.2137 175.885 80.5863 175.885 81.0366C175.885 81.6147 175.725 82.0994 175.406 82.4904C175.087 82.8799 174.632 83.1173 174.038 83.1998L176.156 86.7262H174.442L172.596 83.3456H171.56V86.7262H170.139V78.749ZM172.662 82.1289C172.865 82.1289 173.068 82.1202 173.271 82.1008C173.474 82.0822 173.66 82.0373 173.829 81.9663C173.998 81.895 174.136 81.7847 174.241 81.639C174.345 81.4922 174.397 81.2877 174.397 81.0243C174.397 80.7918 174.349 80.6046 174.251 80.462C174.154 80.319 174.025 80.2119 173.868 80.1389C173.711 80.0679 173.535 80.0212 173.344 79.9994C173.153 79.9773 172.968 79.966 172.786 79.966H171.559V82.1286L172.662 82.1289Z" fill="#1D6399"/>
<path fill-rule="evenodd" clip-rule="evenodd" d="M178.625 45.5762C178.626 49.844 178.625 53.4136 178.621 57.6828C178.62 58.7762 178.6 59.8858 177.212 60.2272C177.103 60.3104 176.259 60.4808 176.259 60.4808L106.611 69.1839L106.609 69.1811C105.382 69.3051 104.152 69.3859 102.916 69.3982C101.68 69.3859 100.449 69.3048 99.2218 69.1811L99.2211 69.1839L29.5734 60.4804C29.5734 60.4804 28.7283 60.3104 28.6212 60.2268C27.2331 59.8854 27.2106 58.7759 27.2099 57.6825C27.2068 53.4136 27.2061 50.033 27.2061 45.763V45.0051C27.2061 40.7358 27.2068 36.4659 27.2099 32.1981C27.2106 31.1026 27.2331 29.992 28.6212 29.6541C28.7283 29.5688 29.5734 29.3984 29.5734 29.3984L99.2211 20.6945L99.2218 20.6991C100.449 20.5768 101.68 20.4947 102.916 20.481C104.152 20.495 105.382 20.5768 106.609 20.6991L106.611 20.6945L176.259 29.3984C176.259 29.3984 177.103 29.5688 177.212 29.6541C178.6 29.9916 178.62 31.1026 178.621 32.1981C178.625 36.4659 178.626 40.7358 178.625 45.0051V45.5762ZM176.211 44.9099V33.9799C176.288 33.2609 176.253 32.5746 175.791 31.9828C175.201 31.4637 174.47 31.5167 173.752 31.5184L173.043 31.5167H102.98H102.852H32.7893L32.0798 31.5184C31.3625 31.5167 30.632 31.464 30.0409 31.9828C29.5786 32.5223 29.5442 33.2609 29.6204 33.9799V44.9099V44.9714V55.901C29.5446 56.6207 29.5786 57.3053 30.0409 57.8967C30.632 58.4173 31.3625 58.3618 32.0798 58.3618L32.7893 58.3646H102.852H102.98H173.043L173.752 58.3618C174.47 58.3618 175.201 58.4173 175.791 57.8967C176.255 57.3608 176.288 56.6207 176.211 55.901V44.9714V44.9099Z" fill="#1D6399"/>
</svg>
