<svg width="65" height="65" viewBox="0 0 65 65" fill="none" xmlns="http://www.w3.org/2000/svg">
<path d="M32.0716 46.4234C29.3171 46.4234 26.6244 45.6066 24.3341 44.0763C22.0438 42.546 20.2588 40.3709 19.2047 37.826C18.1506 35.2812 17.8748 32.4809 18.4121 29.7793C18.9495 27.0778 20.2759 24.5962 22.2237 22.6485C24.1714 20.7007 26.653 19.3743 29.3545 18.8369C32.0561 18.2996 34.8564 18.5754 37.4012 19.6295C39.9461 20.6836 42.1212 22.4686 43.6515 24.7589C45.1818 27.0492 45.9986 29.7419 45.9986 32.4964C46.0184 34.3308 45.6716 36.1507 44.9787 37.8493C44.2858 39.5479 43.2607 41.0911 41.9635 42.3883C40.6663 43.6855 39.1231 44.7106 37.4245 45.4035C35.7259 46.0964 33.906 46.4432 32.0716 46.4234ZM32.0716 23.2117C30.8447 23.1839 29.6249 23.405 28.4858 23.8618C27.3468 24.3185 26.3121 25.0014 25.4443 25.8692C24.5766 26.7369 23.8937 27.7716 23.4369 28.9106C22.9802 30.0497 22.7591 31.2695 22.7869 32.4964C22.7591 33.7233 22.9802 34.9431 23.4369 36.0821C23.8937 37.2212 24.5766 38.2558 25.4443 39.1236C26.3121 39.9914 27.3468 40.6743 28.4858 41.131C29.6249 41.5878 30.8447 41.8089 32.0716 41.7811C33.2985 41.8089 34.5183 41.5878 35.6573 41.131C36.7964 40.6743 37.831 39.9914 38.6988 39.1236C39.5666 38.2558 40.2495 37.2212 40.7062 36.0821C41.163 34.9431 41.3841 33.7233 41.3563 32.4964C41.3841 31.2695 41.163 30.0497 40.7062 28.9106C40.2495 27.7716 39.5666 26.7369 38.6988 25.8692C37.831 25.0014 36.7964 24.3185 35.6573 23.8618C34.5183 23.405 33.2985 23.1839 32.0716 23.2117Z" fill="white"/>
<path d="M62.9551 20.9927L57.4757 11.5042C56.9399 10.5741 56.098 9.85868 55.0936 9.48C54.0892 9.10132 52.9845 9.08283 51.968 9.42768L46.318 11.3387C45.3444 10.6829 44.3269 10.0948 43.2727 9.57855L42.1035 3.73245C41.8931 2.67986 41.3245 1.7327 40.4943 1.05218C39.6642 0.371666 38.6239 -0.000156778 37.5505 4.95897e-08H26.5946C25.5212 -0.000156778 24.4809 0.371666 23.6507 1.05218C22.8206 1.7327 22.252 2.67986 22.0416 3.73245L20.8724 9.57855C19.8066 10.0893 18.7776 10.6736 17.7929 11.3273L12.1771 9.42768C11.1606 9.08283 10.0559 9.10132 9.05151 9.48C8.04712 9.85868 7.20521 10.5741 6.66939 11.5042L1.19003 20.9927C0.653603 21.9223 0.455716 23.0089 0.630021 24.0679C0.804326 25.1269 1.34006 26.0928 2.14612 26.8014L6.62807 30.74C6.58838 31.3235 6.53964 31.9038 6.53964 32.4964C6.53964 33.0948 6.56285 33.6865 6.60417 34.2735L2.14612 38.1917C1.34006 38.9002 0.804326 39.8662 0.630021 40.9252C0.455716 41.9841 0.653603 43.0708 1.19003 44.0004L6.66939 53.4891C7.20521 54.4192 8.04712 55.1346 9.05151 55.5133C10.0559 55.892 11.1606 55.9105 12.1771 55.5656L17.827 53.6546C18.8004 54.3108 19.8179 54.8989 20.8724 55.4148L22.0416 61.2609C22.2521 62.3134 22.8208 63.2604 23.6509 63.9408C24.481 64.6213 25.5212 64.993 26.5946 64.9928H36.7149V60.3505H26.5946L24.9465 52.1085C22.667 51.262 20.5509 50.0281 18.6914 48.4612L10.6894 51.1679L5.21146 41.6794L11.5374 36.12C11.1047 33.7197 11.0991 31.2618 11.5211 28.8596L5.21077 23.3139L10.6913 13.8254L18.6453 16.5158C20.5176 14.9477 22.6497 13.7187 24.9451 12.8846L26.5946 4.64235H37.5505L39.1985 12.8844C41.478 13.7309 43.5941 14.9648 45.4536 16.5316L53.4543 13.8251L58.9322 23.3136L52.438 29.0056L55.4985 32.4964L61.9978 26.8012C62.804 26.0928 63.3399 25.127 63.5144 24.068C63.6889 23.0091 63.4913 21.9224 62.9551 20.9927Z" fill="white"/>
<path d="M48.3198 56.1257L42.308 50.1139L39.0352 53.3868L48.3198 62.6715L64.5681 46.4232L61.2952 43.1504L48.3198 56.1257Z" fill="white"/>
</svg>
