<svg width="65" height="64" viewBox="0 0 65 64" fill="none" xmlns="http://www.w3.org/2000/svg">
<path d="M30.2822 50.2856C21.4607 50.2856 14.2822 43.1083 14.2822 34.2856C14.2822 25.463 21.4607 18.2856 30.2822 18.2856C39.1037 18.2856 46.2822 25.463 46.2822 34.2856C46.2822 43.1083 39.1037 50.2856 30.2822 50.2856ZM30.2822 22.8571C23.981 22.8571 18.8537 27.9844 18.8537 34.2856C18.8537 40.5869 23.981 45.7142 30.2822 45.7142C36.5835 45.7142 41.7108 40.5869 41.7108 34.2856C41.7108 27.9844 36.5835 22.8571 30.2822 22.8571Z" fill="white"/>
<path d="M64.5686 25.1429H59.9972V4.57143H39.4258V0H59.9972C62.5172 0 64.5686 2.05029 64.5686 4.57143V25.1429Z" fill="white"/>
<path d="M30.2826 63.9999C13.8986 63.9999 0.568359 50.6707 0.568359 34.2856C0.568359 17.9004 13.8986 4.57129 30.2826 4.57129V9.14272C16.4189 9.14272 5.13979 20.4218 5.13979 34.2856C5.13979 48.1493 16.4189 59.4284 30.2826 59.4284C44.1464 59.4284 55.4255 48.1493 55.4255 34.2856V31.9999H59.9969V34.2856C59.9969 50.6707 46.6666 63.9999 30.2826 63.9999Z" fill="white"/>
</svg>
