<svg width="89" height="103" viewBox="0 0 89 103" fill="none" xmlns="http://www.w3.org/2000/svg">
<path d="M88.303 71.1301L86.1281 68.9769C85.8708 68.7225 85.5221 68.5795 85.1585 68.5791H82.0701C81.5856 66.8564 80.8939 65.1976 80.0096 63.6382L82.1846 61.4851C82.4416 61.2304 82.586 60.8852 82.5864 60.5253V57.4633C82.586 57.1033 82.4416 56.7581 82.1846 56.5034L78.5284 52.885C78.2711 52.6306 77.9225 52.4876 77.5588 52.4872H74.4773C74.1138 52.4873 73.7652 52.6299 73.5077 52.8839L71.327 55.037C69.7527 54.1619 68.0778 53.4775 66.3384 52.9983V49.9386C66.3381 49.5786 66.1936 49.2334 65.9366 48.9788L63.7617 46.8256C63.6738 46.7369 63.5741 46.6607 63.4652 46.599C64.5262 43.9576 65.0701 41.1406 65.0678 38.298C65.0689 25.0981 53.401 14.3551 39.0578 14.3551C24.7147 14.3551 13.0455 25.0981 13.0455 38.3037C13.0509 43.2064 14.6619 47.9751 17.6369 51.8946C22.2432 58.0378 22.4676 62.4336 22.4676 69.6659V74.9343C22.4706 76.6883 23.1753 78.3698 24.4275 79.6107C25.6797 80.8516 27.3775 81.551 29.1492 81.5558V84.2755C29.1517 85.7151 29.7304 87.0949 30.7586 88.1128C31.7868 89.1307 33.1806 89.7036 34.6347 89.706H37.8192V91.8274C37.8196 92.1874 37.9641 92.5326 38.221 92.7873L41.8841 96.4136C42.1415 96.6676 42.4902 96.8102 42.8537 96.8102H45.9352C46.1151 96.8103 46.2933 96.7752 46.4595 96.7069C46.6257 96.6387 46.7766 96.5386 46.9036 96.4125L49.0843 94.2593C50.6584 95.1351 52.3333 95.8199 54.0729 96.2991V99.3589C54.0732 99.7189 54.2177 100.064 54.4747 100.319L56.6496 102.472C56.7767 102.598 56.9276 102.698 57.0938 102.766C57.26 102.835 57.4381 102.87 57.6181 102.87H62.7898C63.1535 102.869 63.5021 102.726 63.7594 102.472L65.9343 100.319C66.1913 100.064 66.3358 99.7189 66.3361 99.3589V96.2878C68.0758 95.808 69.7511 95.1231 71.3259 94.248L73.5008 96.4011C73.7583 96.6551 74.1069 96.7978 74.4704 96.7978H77.5519C77.9154 96.7978 78.2641 96.6551 78.5215 96.4011L82.1777 92.7748C82.4347 92.5201 82.5792 92.1749 82.5795 91.8149V88.7756C82.5796 88.5975 82.5441 88.4211 82.4752 88.2566C82.4062 88.0921 82.3051 87.9427 82.1777 87.8169L80.0039 85.6581C80.8885 84.0997 81.5803 82.4416 82.0644 80.7195H85.1494C85.513 80.7191 85.8617 80.5761 86.1189 80.3217L88.2939 78.1686C88.5508 77.9139 88.6953 77.5687 88.6956 77.2087V72.0854C88.6966 71.7282 88.5555 71.3851 88.303 71.1301ZM19.8382 50.2786C17.216 46.8258 15.7949 42.6246 15.7883 38.3048C15.7883 26.594 26.2268 17.0749 39.0578 17.0749C51.8888 17.0749 62.3274 26.594 62.3274 38.3037C62.3205 42.624 60.8991 46.8256 58.2763 50.2786C54.944 54.4849 53.092 59.6544 53.0026 64.9993C52.9888 65.0885 52.9842 65.1788 52.9889 65.269C52.9419 66.2436 52.919 67.2521 52.911 68.3083H44.2216V49.6474H46.3668C47.3336 49.6476 48.2788 49.3639 49.0828 48.8323C49.8867 48.3007 50.5134 47.545 50.8835 46.6607C51.2536 45.7765 51.3505 44.8035 51.1619 43.8647C50.9734 42.9259 50.5078 42.0636 49.8242 41.3868C49.1405 40.71 48.2695 40.2491 47.3212 40.0625C46.3729 39.8758 45.39 39.9717 44.4969 40.3381C43.6037 40.7045 42.8403 41.3249 42.3033 42.1208C41.7663 42.9167 41.4798 43.8524 41.48 44.8096V46.9321H36.6356V44.8107C36.6358 43.8536 36.3494 42.918 35.8124 42.1221C35.2755 41.3262 34.5122 40.7058 33.619 40.3394C32.7259 39.9729 31.7431 39.8769 30.7948 40.0635C29.8466 40.2501 28.9756 40.7109 28.2919 41.3876C27.6082 42.0643 27.1425 42.9265 26.9538 43.8652C26.7651 44.8038 26.8619 45.7768 27.2318 46.6611C27.6017 47.5454 28.2282 48.3012 29.032 48.8329C29.8359 49.3647 30.7809 49.6485 31.7477 49.6485H33.8941V68.3083H25.2046C25.1485 61.4341 24.5441 56.5521 19.8382 50.2786ZM55.648 74.9343V69.6659C55.648 68.3627 55.656 67.1535 55.695 66.009C57.3519 65.1631 59.2181 64.802 61.0748 64.968C62.9316 65.134 64.7022 65.8203 66.1792 66.9464C67.6563 68.0725 68.7788 69.5919 69.4152 71.3267C70.0516 73.0615 70.1756 74.9398 69.7727 76.7419C69.3699 78.5439 68.4568 80.195 67.1404 81.5019C65.8239 82.8088 64.1587 83.7174 62.3395 84.1213C60.5204 84.5252 58.6227 84.4077 56.8686 83.7826C55.1144 83.1574 53.5765 82.0505 52.4348 80.5914C53.4155 80.0004 54.2261 79.1696 54.7888 78.1789C55.3515 77.1882 55.6474 76.0709 55.648 74.9343ZM36.6356 68.3083V49.6474H41.48V68.3083H36.6356ZM44.2216 44.8085C44.2216 44.3882 44.3475 43.9774 44.5833 43.628C44.8191 43.2785 45.1543 43.0062 45.5465 42.8454C45.9387 42.6846 46.3703 42.6425 46.7866 42.7245C47.203 42.8065 47.5854 43.0088 47.8856 43.306C48.1857 43.6031 48.3902 43.9818 48.473 44.3939C48.5558 44.8061 48.5133 45.2333 48.3508 45.6216C48.1884 46.0098 47.9133 46.3417 47.5603 46.5752C47.2074 46.8086 46.7924 46.9333 46.3679 46.9333H44.2216V44.8085ZM31.7443 46.9333C31.3198 46.9333 30.9048 46.8086 30.5519 46.5752C30.1989 46.3417 29.9238 46.0098 29.7614 45.6216C29.5989 45.2333 29.5564 44.8061 29.6392 44.3939C29.722 43.9818 29.9264 43.6031 30.2266 43.306C30.5268 43.0088 30.9092 42.8065 31.3256 42.7245C31.7419 42.6425 32.1735 42.6846 32.5657 42.8454C32.9578 43.0062 33.2931 43.2785 33.5289 43.628C33.7647 43.9774 33.8906 44.3882 33.8906 44.8085V46.9321L31.7443 46.9333ZM25.2092 74.9343V71.0235H52.911V74.9343C52.9098 75.971 52.4934 76.9648 51.7531 77.6979C51.0127 78.431 50.0089 78.8436 48.9618 78.8451H29.1595C28.1122 78.8439 27.1081 78.4315 26.3675 77.6983C25.627 76.9652 25.2104 75.9712 25.2092 74.9343ZM31.8908 84.2755V81.5558H46.2294V84.2755C46.2294 84.9969 45.9399 85.6887 45.4247 86.1987C44.9095 86.7088 44.2107 86.9953 43.4821 86.9953H34.6347C33.9066 86.9944 33.2087 86.7075 32.6943 86.1975C32.1798 85.6876 31.8908 84.9963 31.8908 84.2755ZM85.9621 76.6421L84.5884 78.002H81.0044C80.6931 78.0026 80.3913 78.108 80.1483 78.3007C79.9054 78.4934 79.7358 78.7621 79.6674 79.0627C79.1708 81.2198 78.3097 83.2784 77.1204 85.1515C76.9556 85.412 76.8848 85.72 76.9195 86.0254C76.9543 86.3308 77.0924 86.6156 77.3116 86.8333L79.8448 89.3411V91.2676L76.9911 94.0893H75.0451L72.5141 91.5826C72.2942 91.3657 72.0066 91.2289 71.6981 91.1945C71.3896 91.1602 71.0785 91.2303 70.8154 91.3934C68.9213 92.5707 66.8399 93.4228 64.6591 93.9137C64.3567 93.9826 64.0868 94.1507 63.8933 94.3909C63.6997 94.631 63.5941 94.929 63.5934 95.2362V98.7809L62.2198 100.141H58.1858L56.8122 98.7809V95.2339C56.8117 94.9264 56.706 94.628 56.5123 94.3876C56.3185 94.1472 56.0481 93.979 55.7453 93.9103C53.5661 93.4196 51.4865 92.5671 49.5948 91.3888C49.3317 91.2257 49.0206 91.1556 48.7121 91.19C48.4036 91.2244 48.116 91.3612 47.8961 91.5781L45.3606 94.0893H43.4146L40.5608 91.2642V89.7049H43.4821C44.9356 89.7019 46.3287 89.1289 47.3563 88.1113C48.384 87.0937 48.9625 85.7145 48.9652 84.2755V81.5558C49.2208 81.5545 49.476 81.5394 49.7299 81.5105C50.2631 82.3047 50.8864 83.0359 51.5877 83.6897C53.9111 85.871 56.9927 87.0845 60.1948 87.0792C60.3218 87.0792 60.4478 87.0792 60.5748 87.0792C62.391 87.0233 64.1732 86.578 65.7987 85.774C67.4241 84.97 68.854 83.8265 69.9896 82.4224C71.1253 81.0182 71.9398 79.3869 72.3767 77.6409C72.8137 75.8949 72.8629 74.0758 72.5208 72.3091C72.1787 70.5425 71.4536 68.8704 70.3953 67.4081C69.3371 65.9459 67.971 64.7283 66.3914 63.8394C64.8117 62.9506 63.056 62.4116 61.2455 62.2597C59.435 62.1077 57.6127 62.3465 55.9044 62.9594C56.328 58.9129 57.9174 55.0722 60.4833 51.8946C61.1337 51.026 61.7231 50.1143 62.2472 49.1657L63.5969 50.5052V54.0522C63.5965 54.3596 63.7014 54.6579 63.8943 54.8987C64.0872 55.1395 64.3568 55.3085 64.6591 55.3781C66.8384 55.8688 68.918 56.7213 70.8096 57.8996C71.0728 58.063 71.3842 58.1332 71.693 58.0989C72.0017 58.0645 72.2896 57.9275 72.5095 57.7103L75.0416 55.2025H76.9876L79.8414 58.0276V59.9541L77.3093 62.4597C77.0901 62.6774 76.952 62.9621 76.9173 63.2675C76.8825 63.5729 76.9533 63.8809 77.1181 64.1414C78.3073 66.0151 79.1677 68.0746 79.6628 70.2325C79.7324 70.5321 79.9025 70.7995 80.1453 70.9911C80.3881 71.1827 80.6893 71.2872 80.9998 71.2876H84.5827L85.9564 72.6474L85.9621 76.6421ZM37.6865 5.99184V2.22951C37.6865 1.86885 37.8312 1.52296 38.0888 1.26793C38.3464 1.0129 38.6958 0.869629 39.0601 0.869629C39.4244 0.869629 39.7738 1.0129 40.0314 1.26793C40.289 1.52296 40.4337 1.86885 40.4337 2.22951V5.99184C40.4337 6.3525 40.289 6.69839 40.0314 6.95342C39.7738 7.20845 39.4244 7.35172 39.0601 7.35172C38.6958 7.35172 38.3464 7.20845 38.0888 6.95342C37.8312 6.69839 37.6865 6.3525 37.6865 5.99184ZM19.0724 7.89567C18.9114 7.58529 18.8771 7.22553 18.9766 6.89081C19.076 6.55609 19.3016 6.27201 19.6067 6.09734C19.9118 5.92267 20.273 5.87078 20.6157 5.95238C20.9583 6.03399 21.2562 6.24286 21.4477 6.53579L23.349 9.7961C23.51 10.1065 23.5443 10.4662 23.4449 10.801C23.3454 11.1357 23.1198 11.4198 22.8147 11.5944C22.5096 11.7691 22.1484 11.821 21.8057 11.7394C21.4631 11.6578 21.1652 11.4489 20.9738 11.156L19.0724 7.89567ZM10.9805 23.3972C10.7983 23.7088 10.4987 23.9361 10.1474 24.0294C9.79615 24.1227 9.42185 24.0742 9.10661 23.8946L5.81329 22.0112C5.64643 21.9278 5.49852 21.8115 5.37864 21.6695C5.25876 21.5274 5.16942 21.3627 5.1161 21.1853C5.06278 21.0079 5.04659 20.8216 5.06854 20.6378C5.09048 20.454 5.15009 20.2766 5.24372 20.1164C5.33734 19.9562 5.46301 19.8166 5.61303 19.7062C5.76305 19.5957 5.93427 19.5168 6.11619 19.4741C6.29811 19.4315 6.48691 19.4261 6.67102 19.4582C6.85514 19.4903 7.03069 19.5593 7.18694 19.6609L10.4803 21.5432C10.7943 21.7239 11.0233 22.0205 11.117 22.3679C11.2108 22.7154 11.1617 23.0855 10.9805 23.3972ZM5.26498 40.8025H1.46227C1.2748 40.8145 1.08685 40.7883 0.910016 40.7255C0.733185 40.6627 0.571238 40.5647 0.434187 40.4375C0.297135 40.3104 0.187893 40.1567 0.113212 39.986C0.0385316 39.8154 0 39.6314 0 39.4454C0 39.2595 0.0385316 39.0755 0.113212 38.9048C0.187893 38.7342 0.297135 38.5805 0.434187 38.4533C0.571238 38.3261 0.733185 38.2281 0.910016 38.1654C1.08685 38.1026 1.2748 38.0764 1.46227 38.0884H5.26498C5.45244 38.0764 5.6404 38.1026 5.81723 38.1654C5.99406 38.2281 6.15601 38.3261 6.29306 38.4533C6.43011 38.5805 6.53935 38.7342 6.61404 38.9048C6.68872 39.0755 6.72725 39.2595 6.72725 39.4454C6.72725 39.6314 6.68872 39.8154 6.61404 39.986C6.53935 40.1567 6.43011 40.3104 6.29306 40.4375C6.15601 40.5647 5.99406 40.6627 5.81723 40.7255C5.6404 40.7883 5.45244 40.8145 5.26498 40.8025ZM10.9805 55.4914C11.1615 55.8034 11.2102 56.1737 11.1161 56.5212C11.0219 56.8687 10.7924 57.165 10.478 57.3454L7.18465 59.2311C6.87151 59.3877 6.50971 59.4198 6.17346 59.3207C5.8372 59.2217 5.55198 58.999 5.37628 58.6984C5.20058 58.3977 5.14773 58.042 5.22857 57.704C5.3094 57.366 5.51779 57.0715 5.811 56.8808L9.10432 54.9985C9.41921 54.8178 9.79365 54.7683 10.1454 54.8607C10.4972 54.9531 10.7975 55.18 10.9805 55.4914ZM72.8495 38.0884H76.6534C77.0016 38.1107 77.3282 38.2633 77.5669 38.5154C77.8056 38.7674 77.9384 39.1 77.9384 39.4454C77.9384 39.7909 77.8056 40.1234 77.5669 40.3755C77.3282 40.6275 77.0016 40.7802 76.6534 40.8025H72.8495C72.5013 40.7802 72.1746 40.6275 71.936 40.3755C71.6973 40.1234 71.5645 39.7909 71.5645 39.4454C71.5645 39.1 71.6973 38.7674 71.936 38.5154C72.1746 38.2633 72.5013 38.1107 72.8495 38.0884ZM67.1351 23.3972C66.9541 23.0852 66.9054 22.7149 66.9996 22.3674C67.0938 22.0199 67.3232 21.7236 67.6377 21.5432L70.931 19.6609C71.0872 19.5593 71.2628 19.4903 71.4469 19.4582C71.631 19.4261 71.8198 19.4315 72.0017 19.4741C72.1836 19.5168 72.3549 19.5957 72.5049 19.7062C72.6549 19.8166 72.7806 19.9562 72.8742 20.1164C72.9678 20.2766 73.0274 20.454 73.0494 20.6378C73.0713 20.8216 73.0551 21.0079 73.0018 21.1853C72.9485 21.3627 72.8592 21.5274 72.7393 21.6695C72.6194 21.8115 72.4715 21.9278 72.3046 22.0112L69.009 23.8946C68.6939 24.0738 68.3199 24.1221 67.9688 24.0289C67.6178 23.9356 67.3173 23.7085 67.1351 23.3972ZM54.7723 9.79837L56.668 6.53579C56.8594 6.24286 57.1573 6.03399 57.4999 5.95238C57.8426 5.87078 58.2038 5.92267 58.5089 6.09734C58.814 6.27201 59.0396 6.55609 59.1391 6.89081C59.2385 7.22553 59.2042 7.58529 59.0432 7.89567L57.1407 11.156C57.0564 11.3212 56.9389 11.4676 56.7955 11.5863C56.652 11.705 56.4856 11.7934 56.3064 11.8462C56.1273 11.899 55.9391 11.915 55.7534 11.8933C55.5678 11.8715 55.3885 11.8125 55.2267 11.7198C55.0649 11.6272 54.9239 11.5027 54.8123 11.3542C54.7008 11.2057 54.621 11.0362 54.578 10.8561C54.5349 10.676 54.5294 10.4891 54.5618 10.3068C54.5943 10.1246 54.6639 9.95078 54.7666 9.7961L54.7723 9.79837Z" fill="white"/>
</svg>
