<svg width="22" height="22" viewBox="0 0 22 22" fill="none" xmlns="http://www.w3.org/2000/svg">
<path d="M8.64292 21.9997C6.35068 21.9997 4.15232 21.0891 2.53145 19.4683C0.910591 17.8474 0 15.649 0 13.3568C0 11.0645 0.910591 8.86618 2.53145 7.24532C4.15232 5.62446 6.35068 4.71387 8.64292 4.71387C8.85131 4.71387 9.05116 4.79665 9.19851 4.944C9.34586 5.09135 9.42864 5.2912 9.42864 5.49959V12.5711H16.5001C16.7085 12.5711 16.9084 12.6539 17.0557 12.8012C17.2031 12.9486 17.2858 13.1484 17.2858 13.3568C17.2858 15.649 16.3753 17.8474 14.7544 19.4683C13.1335 21.0891 10.9352 21.9997 8.64292 21.9997ZM7.8572 6.33245C6.53343 6.47973 5.27816 6.99788 4.23594 7.82725C3.19372 8.65661 2.40691 9.76346 1.96612 11.0203C1.52533 12.2772 1.44848 13.6331 1.74441 14.9317C2.04034 16.2304 2.69703 17.419 3.63885 18.3609C4.58068 19.3027 5.76935 19.9594 7.068 20.2553C8.36665 20.5512 9.72248 20.4744 10.9794 20.0336C12.2363 19.5928 13.3431 18.806 14.1725 17.7638C15.0018 16.7215 15.52 15.4663 15.6673 14.1425H9.42864C9.01187 14.1425 8.61217 13.9769 8.31747 13.6822C8.02277 13.3875 7.8572 12.9878 7.8572 12.5711V6.33245Z" fill="white"/>
<path d="M20.4281 9.42864H13.3566C12.9398 9.42864 12.5401 9.26308 12.2454 8.96838C11.9507 8.67368 11.7852 8.27397 11.7852 7.8572V0.78572C11.7852 0.577334 11.8679 0.377483 12.0153 0.230132C12.1626 0.082781 12.3625 0 12.5709 0C14.8631 0 17.0615 0.910591 18.6823 2.53145C20.3032 4.15232 21.2138 6.35068 21.2138 8.64292C21.2138 8.85131 21.131 9.05116 20.9837 9.19851C20.8363 9.34586 20.6365 9.42864 20.4281 9.42864ZM13.3566 7.8572H19.5952C19.4164 6.26417 18.7017 4.77916 17.5682 3.64565C16.4346 2.51213 14.9496 1.79738 13.3566 1.61858V7.8572Z" fill="white"/>
</svg>
