<svg width="65" height="64" viewBox="0 0 65 64" fill="none" xmlns="http://www.w3.org/2000/svg">
<path d="M50.8539 63.9999C48.1415 63.9999 45.49 63.1955 43.2347 61.6886C40.9794 60.1816 39.2216 58.0398 38.1836 55.5338C37.1456 53.0279 36.874 50.2704 37.4032 47.6101C37.9323 44.9497 39.2385 42.5061 41.1565 40.5881C43.0745 38.6701 45.5181 37.364 48.1784 36.8348C50.8387 36.3056 53.5962 36.5772 56.1022 37.6152C58.6081 38.6532 60.75 40.411 62.2569 42.6663C63.7639 44.9216 64.5682 47.5732 64.5682 50.2856C64.5642 53.9216 63.118 57.4075 60.5469 59.9786C57.9759 62.5496 54.49 63.9958 50.8539 63.9999ZM50.8539 41.1427C49.0457 41.1427 47.278 41.6789 45.7744 42.6836C44.2709 43.6882 43.099 45.1161 42.407 46.7868C41.715 48.4574 41.534 50.2957 41.8868 52.0693C42.2395 53.8428 43.1103 55.4719 44.389 56.7506C45.6676 58.0292 47.2967 58.9 49.0703 59.2528C50.8438 59.6055 52.6821 59.4245 54.3528 58.7325C56.0234 58.0405 57.4513 56.8686 58.4559 55.3651C59.4606 53.8615 59.9968 52.0939 59.9968 50.2856C59.9941 47.8616 59.0299 45.5376 57.3159 43.8236C55.6019 42.1096 53.2779 41.1454 50.8539 41.1427Z" fill="white"/>
<path d="M23.4251 31.0633L17.5051 25.1433L14.2822 28.3661L23.4251 37.509L39.4251 21.509L36.2022 18.2861L23.4251 31.0633Z" fill="white"/>
<path d="M27.9969 50.2857C23.4762 50.2857 19.057 48.9452 15.2982 46.4336C11.5394 43.922 8.6097 40.3522 6.8797 36.1756C5.14969 31.999 4.69704 27.4032 5.57899 22.9694C6.46094 18.5355 8.63787 14.4628 11.8345 11.2661C15.0311 8.06951 19.1039 5.89258 23.5377 5.01063C27.9716 4.12869 32.5674 4.58133 36.744 6.31134C40.9206 8.04134 44.4904 10.971 47.002 14.7298C49.5135 18.4887 50.8541 22.9079 50.8541 27.4286H55.4255C55.4255 22.0037 53.8168 16.7007 50.803 12.1901C47.7891 7.67948 43.5053 4.16389 38.4934 2.08789C33.4815 0.0118844 27.9665 -0.531293 22.6459 0.527045C17.3253 1.58538 12.438 4.1977 8.60201 8.03365C4.76606 11.8696 2.15374 16.7569 1.0954 22.0775C0.0370666 27.3982 0.580244 32.9131 2.65625 37.925C4.73225 42.937 8.24784 47.2207 12.7584 50.2346C17.269 53.2485 22.5721 54.8571 27.9969 54.8571V50.2857Z" fill="white"/>
</svg>
