<svg width="76" height="103" viewBox="0 0 76 103" fill="none" xmlns="http://www.w3.org/2000/svg">
<path d="M13.5291 66.9076C13.5291 66.9076 13.5039 66.8428 13.4888 66.808C13.4485 66.808 13.4233 66.793 13.3881 66.793C12.6779 66.6535 11.8268 66.4892 10.9404 66.1953L1.36098 91.7969C1.08901 92.5091 1.27033 93.3011 1.82435 93.8391C2.36829 94.3621 3.17919 94.5265 3.88936 94.2326L17.7653 88.7138L24.6653 101.849C25.0027 102.486 25.6575 102.87 26.3777 102.87H26.4935C27.2691 102.82 27.9239 102.332 28.1958 101.634L37.9061 75.6746C37.9061 75.6746 37.8809 75.6995 37.8658 75.6995C36.6671 76.362 35.0958 77.2286 33.1315 77.4229L26.0803 96.2563L20.3941 85.4179C20.0466 84.7654 19.3767 84.3868 18.6666 84.3868C18.4349 84.3868 18.1882 84.4366 17.9565 84.5263L6.49346 89.0887L14.2044 68.5073C13.9324 67.9345 13.7158 67.3866 13.5345 66.9134L13.5291 66.9076Z" fill="white"/>
<path d="M55.6125 85.4071L49.9262 96.2455L42.8751 77.4122C40.9159 77.2229 39.3445 76.3563 38.1558 75.6888C38.1307 75.6888 38.1155 75.6888 38.1055 75.6639L47.8158 101.624C48.0877 102.326 48.7425 102.809 49.5181 102.859H49.6339C50.3541 102.859 51.0139 102.475 51.3463 101.838L58.2463 88.7031L72.1222 94.2218C72.8324 94.5157 73.6433 94.3513 74.1872 93.8284C74.7413 93.2904 74.9226 92.5034 74.6506 91.7861L65.0712 66.1846C64.1797 66.4784 63.3285 66.6428 62.6235 66.7723C62.5983 66.7873 62.558 66.7972 62.5228 66.7972C62.5077 66.8371 62.4976 66.862 62.4825 66.8869C62.3012 67.37 62.0846 67.9179 61.8126 68.4957L69.5235 89.0772L58.0605 84.5147C57.1439 84.1461 56.0863 84.5396 55.6229 85.4063L55.6125 85.4071Z" fill="white"/>
<path d="M0.00491353 37.9332C0.00491353 39.6915 1.12805 41.0463 2.10512 42.2417C2.59367 42.8294 3.21316 43.5815 3.27863 43.975C3.36929 44.4233 3.03184 45.3497 2.77499 46.1069C2.26126 47.5364 1.69215 49.1552 2.28644 50.789C2.90593 52.4327 4.40174 53.3143 5.74149 54.1063C6.41134 54.4998 7.25247 54.9979 7.46895 55.3664C7.69056 55.735 7.70063 56.7163 7.71574 57.5082C7.74093 59.0274 7.76611 60.7458 8.90436 62.0856C10.0376 63.4106 11.755 63.7443 13.2609 64.0231C14.0466 64.1626 15.0136 64.3568 15.3511 64.6358C15.6885 64.9047 16.036 65.8212 16.303 66.5484C16.857 67.978 17.4765 69.5967 18.9974 70.4733C20.5185 71.34 22.2359 71.0611 23.7569 70.817C24.5426 70.6875 25.5247 70.5381 25.9478 70.6875C26.3456 70.827 26.9802 71.5691 27.4939 72.1419C28.5012 73.3174 29.6496 74.6273 31.4022 74.9362C31.649 74.976 31.8907 75.0009 32.1224 75.0009C33.5427 75.0009 34.8169 74.2887 35.9502 73.661C36.6603 73.2676 37.5367 72.7794 38 72.7794C38.4633 72.7794 39.3398 73.2626 40.0498 73.661C41.3794 74.3982 42.8753 75.2301 44.6027 74.9361C46.3554 74.6323 47.5037 73.3174 48.511 72.1568C49.0247 71.5691 49.6593 70.8318 50.0571 70.6925C50.4802 70.5381 51.4623 70.6925 52.248 70.822C53.769 71.066 55.4864 71.345 57.0075 70.4783C58.5285 69.5967 59.148 67.9779 59.7019 66.5534C59.9739 65.8262 60.3214 64.9096 60.6538 64.6407C60.9913 64.3618 61.9683 64.1675 62.744 64.0281C64.255 63.7491 65.9673 63.4154 67.1005 62.0906C68.2338 60.7507 68.2589 59.0323 68.2892 57.5132C68.3043 56.7212 68.3143 55.74 68.536 55.3714C68.7576 55.0028 69.5936 54.5047 70.2634 54.1112C71.593 53.3193 73.0989 52.4426 73.7185 50.7939C74.3128 49.1602 73.7436 47.5414 73.24 46.1118C72.968 45.3597 72.6457 44.4283 72.7263 43.98C72.7917 43.5865 73.4112 42.8344 73.8998 42.2466C74.8819 41.0462 76 39.6964 76 37.9382C76 36.1799 74.8769 34.8152 73.8998 33.6148C73.4112 33.027 72.7917 32.2749 72.7263 31.8814C72.6507 31.4331 72.9731 30.5067 73.24 29.7496C73.7436 28.32 74.3077 26.7013 73.7185 25.0824C73.099 23.4238 71.6032 22.5471 70.2634 21.7552C69.5936 21.3617 68.7524 20.8636 68.536 20.495C68.3143 20.1264 68.3043 19.1452 68.2892 18.3532C68.264 16.834 68.2388 15.1156 67.1005 13.7758C65.9673 12.4509 64.2499 12.1172 62.744 11.8383C61.9583 11.6988 60.9913 11.5046 60.6538 11.2257C60.3164 10.9567 59.9689 10.0402 59.7019 9.31299C59.1479 7.88347 58.5284 6.26473 57.0075 5.38809C55.4864 4.52141 53.769 4.80034 52.248 5.04441C51.4623 5.17391 50.4802 5.32334 50.0571 5.17391C49.6593 5.03444 49.0247 4.29229 48.511 3.70958C47.5037 2.54903 46.3553 1.23409 44.6027 0.930231C42.8753 0.636358 41.3794 1.46817 40.0498 2.20534C39.3396 2.59882 38.4633 3.08696 38 3.08696C37.5367 3.08696 36.6602 2.60381 35.9502 2.20534C34.6206 1.46817 33.1147 0.636319 31.3973 0.930231C29.6445 1.23406 28.4963 2.54898 27.489 3.7245C26.9753 4.31224 26.3407 5.03939 25.9428 5.17888C25.5198 5.33329 24.5377 5.17888 23.752 5.04938C22.231 4.80532 20.5136 4.52639 18.9925 5.39306C17.4715 6.27468 16.852 7.89342 16.2981 9.31797C16.0261 10.0452 15.6786 10.9516 15.3462 11.2306C15.0087 11.5096 14.0317 11.7038 13.256 11.8433C11.745 12.1222 10.0327 12.4559 8.89945 13.7808C7.76624 15.1207 7.74105 16.839 7.71083 18.3582C7.71083 19.1501 7.68565 20.1313 7.46404 20.5C7.24243 20.8686 6.40638 21.3666 5.73658 21.7601C4.39682 22.5521 2.90106 23.4287 2.28153 25.0874C1.68722 26.7061 2.25635 28.325 2.77008 29.7545C3.02694 30.5066 3.34927 31.4381 3.27372 31.8864C3.20824 32.2799 2.58875 33.032 2.10021 33.6198C1.11809 34.8202 0 36.17 0 37.9431L0.00491353 37.9332ZM5.09678 36.0355C5.92276 35.0393 6.84951 33.9185 7.09629 32.5289C7.34309 31.1143 6.8495 29.7247 6.42644 28.4844C6.17965 27.7821 5.80695 26.7262 5.9228 26.3825C6.06383 26.014 7.05601 25.4262 7.71576 25.0427C8.83889 24.3902 10.1031 23.638 10.8233 22.4177C11.5435 21.1675 11.5687 19.7032 11.5838 18.4131C11.5989 17.661 11.6241 16.5253 11.8659 16.2316C12.1127 15.9377 13.2308 15.7335 13.9812 15.594C15.2705 15.3499 16.726 15.071 17.8341 14.1545C18.9422 13.2381 19.4609 11.8732 19.9243 10.6629C20.1962 9.9606 20.5941 8.88975 20.9416 8.70039C21.264 8.51112 22.3871 8.70039 23.1325 8.81495C24.4218 9.01917 25.8925 9.24829 27.2573 8.76514C28.6122 8.28199 29.5641 7.18618 30.4152 6.20001C30.9188 5.62721 31.6643 4.76055 32.0671 4.69577C32.4146 4.63102 33.4471 5.19385 34.0666 5.53754C35.2149 6.1751 36.5295 6.90229 38.0001 6.90229C39.4708 6.90229 40.7854 6.17508 41.9337 5.53754C42.5532 5.20382 43.5856 4.63102 43.9332 4.69577C44.3311 4.76052 45.0815 5.6272 45.5851 6.20001C46.4362 7.18125 47.3881 8.27703 48.7429 8.76514C50.1078 9.24829 51.5785 9.01917 52.8678 8.81495C53.6132 8.70039 54.7363 8.51112 55.0586 8.70039C55.4062 8.88967 55.804 9.96055 56.076 10.6629C56.5394 11.8733 57.0682 13.238 58.1662 14.1545C59.2742 15.071 60.7298 15.3549 62.0191 15.594C62.7645 15.7335 63.8876 15.9377 64.1445 16.2316C64.3761 16.5254 64.4013 17.6611 64.4164 18.3982C64.4315 19.6982 64.4567 21.1676 65.1769 22.4128C65.8972 23.6381 67.1614 24.3902 68.2845 25.0377C68.9443 25.4312 69.9364 26.009 70.0775 26.3776C70.1933 26.7212 69.8206 27.7822 69.5738 28.4795C69.1508 29.7147 68.6572 31.1044 68.904 32.524C69.1508 33.9136 70.0775 35.0493 70.9035 36.0305C71.4172 36.6531 72.1273 37.5099 72.1273 37.9282C72.1273 38.3466 71.4172 39.1884 70.9035 39.816C70.0775 40.7973 69.1508 41.933 68.904 43.3226C68.6572 44.7372 69.1508 46.1268 69.5738 47.3671C69.8206 48.0694 70.1933 49.1253 70.0775 49.469C69.9364 49.8375 68.9443 50.4253 68.2845 50.8088C67.1614 51.4613 65.8972 52.2135 65.1769 53.4338C64.4567 54.684 64.4315 56.1484 64.4164 57.4384C64.4013 58.1905 64.3761 59.3262 64.1344 59.62C63.8876 59.9138 62.7695 60.118 62.0191 60.2575C60.7297 60.5016 59.2742 60.7805 58.1662 61.697C57.0581 62.6134 56.5394 63.9783 56.076 65.1886C55.804 65.8909 55.4062 66.9618 55.0586 67.1511C54.7363 67.3304 53.6132 67.1511 52.8678 67.0366C51.5784 66.8323 50.1078 66.5883 48.7429 67.0864C47.3881 67.5695 46.4362 68.6802 45.5851 69.6515C45.0814 70.2243 44.336 71.091 43.9332 71.1557C43.5705 71.2055 42.5532 70.6577 41.9337 70.314C40.7853 69.6764 39.4708 68.9492 38.0001 68.9492C36.5295 68.9492 35.2149 69.6764 34.0666 70.314C33.4471 70.6576 32.4398 71.2304 32.0671 71.1557C31.6692 71.091 30.9188 70.2243 30.4152 69.6515C29.564 68.6802 28.6122 67.5745 27.2573 67.0864C26.663 66.8672 26.0435 66.7925 25.424 66.7925C24.6383 66.7925 23.8526 66.922 23.1274 67.0366C22.382 67.1511 21.2589 67.3304 20.9366 67.1511C20.5891 66.9618 20.1912 65.891 19.9192 65.1886C19.4559 63.9782 18.9371 62.6135 17.8291 61.697C16.721 60.7804 15.2655 60.4966 13.9761 60.2575C13.2307 60.118 12.1076 59.9138 11.8608 59.62C11.614 59.3261 11.5889 58.1904 11.5788 57.4384C11.5637 56.1484 11.5385 54.6839 10.8183 53.4338C10.0981 52.2085 8.83386 51.4563 7.71072 50.8088C7.05093 50.4154 6.05881 49.8376 5.91776 49.469C5.80192 49.1253 6.17462 48.0643 6.4214 47.3671C6.84447 46.1418 7.33805 44.7422 7.09125 43.3226C6.84446 41.933 5.91774 40.8122 5.09174 39.816C4.57801 39.1934 3.86787 38.3367 3.86787 37.9282C3.86787 37.5198 4.57801 36.6531 5.09174 36.0305L5.09678 36.0355Z" fill="white"/>
<path d="M38.0009 64.7907C52.9843 64.7907 65.1531 52.742 65.1531 37.9383C65.1531 23.1345 52.9799 11.0718 38.0009 11.0718C23.0174 11.0718 10.8486 23.1205 10.8486 37.9383C10.8486 52.7563 23.0218 64.7907 38.0009 64.7907ZM38.0009 14.8971C50.8439 14.8971 61.2851 25.2275 61.2851 37.9383C61.2851 50.649 50.8394 60.9654 38.0009 60.9654C25.1579 60.9654 14.7167 50.635 14.7167 37.9383C14.7167 25.2371 25.1624 14.8971 38.0009 14.8971Z" fill="white"/>
<path d="M35.0848 43.2033C35.4474 43.5619 35.936 43.7661 36.4497 43.7661C36.9634 43.7661 37.457 43.5619 37.8146 43.2033L45.742 35.3634C46.4874 34.6263 46.4874 33.411 45.742 32.6588C44.9815 31.9067 43.7576 31.9067 43.0072 32.6588L36.4447 39.1488L32.9745 35.717C32.2291 34.9799 31.0003 34.9799 30.2397 35.717C29.4943 36.4691 29.4943 37.6795 30.2397 38.4216L35.0747 43.2033H35.0848Z" fill="white"/>
</svg>
