<svg width="31" height="31" viewBox="0 0 31 31" fill="none" xmlns="http://www.w3.org/2000/svg">
<path d="M15.1606 30.4349C23.4154 30.4349 30.1073 23.8165 30.1073 15.6523C30.1073 7.48805 23.4154 0.869629 15.1606 0.869629C6.90573 0.869629 0.213867 7.48805 0.213867 15.6523C0.213867 23.8165 6.90573 30.4349 15.1606 30.4349Z" fill="white"/>
<path d="M24.1641 15.6513C24.1613 15.3545 24.1613 15.0723 24.1613 14.7957C24.1613 13.8914 24.1653 13.0507 24.1096 11.9813C24.075 11.1921 23.9508 10.4613 23.6894 9.81954C23.461 9.21197 23.1085 8.69016 22.6525 8.24122C22.2263 7.79913 21.6938 7.4581 21.0587 7.21532C20.4029 6.96166 19.6742 6.82436 18.873 6.80262C18.1272 6.7547 16.8131 6.74142 15.1607 6.74826C13.5082 6.74142 12.1937 6.75511 11.4483 6.80262C10.6471 6.82436 9.91884 6.96166 9.26259 7.21532C8.62751 7.4581 8.09503 7.79913 7.66879 8.24122C7.21284 8.69016 6.86029 9.21197 6.63191 9.81954C6.37055 10.4613 6.24639 11.1921 6.21178 11.9813C6.13891 13.3776 6.16822 14.3834 6.15723 15.6509V15.6529C6.16008 15.9496 6.16008 16.2319 6.16008 16.5085C6.16008 17.4128 6.15601 18.2535 6.21178 19.3229C6.24639 20.112 6.37055 20.8428 6.63191 21.4846C6.86029 22.0922 7.21284 22.614 7.66879 23.0629C8.09503 23.505 8.62751 23.8461 9.26259 24.0888C9.91843 24.3425 10.6471 24.4798 11.4483 24.5015C12.1941 24.5494 13.5082 24.5627 15.1607 24.5559C16.8131 24.5627 18.1272 24.549 18.873 24.5015C19.6742 24.4798 20.4025 24.3425 21.0587 24.0888C21.6938 23.8461 22.2263 23.505 22.6525 23.0629C23.1085 22.614 23.461 22.0922 23.6894 21.4846C23.9508 20.8428 24.075 20.112 24.1096 19.3229C24.1824 17.9265 24.1531 16.9208 24.1641 15.6533V15.6513ZM22.4905 19.2403V19.254C22.4612 19.9119 22.359 20.4607 22.186 20.8859L22.1779 20.906L22.1701 20.9262C22.0297 21.3002 21.8131 21.6271 21.509 21.9271L21.4939 21.9416L21.4793 21.9565C21.2195 22.2263 20.8906 22.4344 20.4741 22.5939L20.468 22.5963C19.9909 22.7807 19.4393 22.8826 18.8282 22.8995L18.7981 22.9003L18.768 22.9023C18.2217 22.9373 17.2625 22.955 15.9158 22.955C15.6752 22.955 15.4249 22.9542 15.1668 22.9534H15.1533C14.8952 22.9542 14.6449 22.955 14.4043 22.955C13.058 22.955 12.0985 22.9373 11.5521 22.9023L11.522 22.9003L11.4919 22.8995C10.8812 22.883 10.3292 22.7807 9.85207 22.5963L9.84597 22.5939C9.42951 22.4344 9.10057 22.2263 8.84043 21.9565L8.82577 21.9416L8.81071 21.9271C8.5062 21.6271 8.29003 21.3002 8.14958 20.9262L8.14184 20.906L8.1337 20.8859C7.96068 20.4607 7.8585 19.9119 7.8296 19.254V19.2403C7.77912 18.2813 7.77953 17.505 7.77953 16.6836C7.77953 16.3543 7.77952 16.014 7.77667 15.6525C7.77952 15.2909 7.77953 14.9507 7.77953 14.6213C7.77953 13.7996 7.77871 13.0233 7.82919 12.0642V12.0509C7.8585 11.393 7.96068 10.8442 8.1337 10.4191L8.14184 10.3989L8.14958 10.3788C8.29003 10.0048 8.5062 9.67741 8.81071 9.37745L8.82577 9.36296L8.84043 9.34806C9.10057 9.0783 9.4291 8.87014 9.84597 8.71069L9.85207 8.70828C10.3292 8.52347 10.8812 8.4216 11.4915 8.40509L11.522 8.40429L11.5521 8.40228C12.0985 8.36725 13.058 8.34953 14.4047 8.34953C14.6453 8.34953 14.8952 8.35034 15.1529 8.35114H15.1664C15.4245 8.35034 15.674 8.34953 15.915 8.34953C17.2617 8.34953 18.2213 8.36725 18.7676 8.40228L18.7977 8.40429L18.8282 8.40509C19.4389 8.4216 19.9905 8.52347 20.4676 8.70828L20.4737 8.71069C20.8902 8.87014 21.2191 9.0783 21.4789 9.34806L21.4935 9.36296L21.5086 9.37745C21.8131 9.67741 22.0293 10.0048 22.1697 10.3788L22.1775 10.3989L22.1856 10.4191C22.3586 10.8442 22.4608 11.393 22.4897 12.0509V12.0642C22.5402 13.0233 22.5398 13.7996 22.5398 14.6213C22.5398 14.9507 22.5398 15.2909 22.5426 15.6525C22.5398 16.014 22.5398 16.3543 22.5398 16.6836C22.5398 17.5054 22.5406 18.2817 22.4901 19.2403H22.4905Z" fill="#0C0C0C"/>
<path d="M15.1603 11.0806C12.6074 11.0806 10.5381 13.1271 10.5381 15.6521C10.5381 18.177 12.6074 20.2235 15.1603 20.2235C17.7132 20.2235 19.7825 18.177 19.7825 15.6521C19.7825 13.1271 17.7132 11.0806 15.1603 11.0806ZM15.1603 18.6207C13.505 18.6207 12.1588 17.2888 12.1588 15.6521C12.1588 14.0154 13.505 12.6834 15.1603 12.6834C16.8156 12.6834 18.1619 14.015 18.1619 15.6521C18.1619 17.2892 16.8156 18.6207 15.1603 18.6207Z" fill="#0C0C0C"/>
<path d="M19.9672 9.83057C19.3704 9.83057 18.8867 10.3089 18.8867 10.8996C18.8867 11.4902 19.3708 11.9685 19.9672 11.9685C20.5636 11.9685 21.048 11.4902 21.048 10.8996C21.048 10.3089 20.564 9.83057 19.9672 9.83057Z" fill="#0C0C0C"/>
</svg>
