<svg width="30" height="31" viewBox="0 0 30 31" fill="none" xmlns="http://www.w3.org/2000/svg">
<path d="M14.9477 30.4349C23.2025 30.4349 29.8944 23.8165 29.8944 15.6523C29.8944 7.48805 23.2025 0.869629 14.9477 0.869629C6.69284 0.869629 0.000976562 7.48805 0.000976562 15.6523C0.000976562 23.8165 6.69284 30.4349 14.9477 30.4349Z" fill="white"/>
<path d="M10.4594 12.9634H7.08984V23.6649H10.4594V12.9634Z" fill="#0C0C0C"/>
<path d="M23.0667 16.9201V23.6658H19.6971V18.3692C19.7151 18.0451 19.7167 17.7471 19.6971 17.4749C19.606 16.168 19.0617 15.4702 17.9014 15.4702C17.5937 15.4863 17.3099 15.5475 17.0591 15.6667C16.3374 16.0065 15.8761 16.8126 15.8452 18.3692V23.6658H12.4756V12.9642H15.7149L15.7475 14.3227C16.7119 13.1672 17.9601 12.4742 19.6971 12.5842C22.1475 12.9807 22.9983 14.6404 23.0667 16.9205V16.9201Z" fill="#0C0C0C"/>
<path d="M8.77505 11.4903C9.84977 11.4903 10.721 10.6286 10.721 9.5657C10.721 8.50278 9.84977 7.64111 8.77505 7.64111C7.70034 7.64111 6.8291 8.50278 6.8291 9.5657C6.8291 10.6286 7.70034 11.4903 8.77505 11.4903Z" fill="#0C0C0C"/>
</svg>
