<svg width="30" height="31" viewBox="0 0 30 31" fill="none" xmlns="http://www.w3.org/2000/svg">
<path d="M15.0541 30.4349C23.309 30.4349 30.0008 23.8165 30.0008 15.6523C30.0008 7.48805 23.309 0.869629 15.0541 0.869629C6.79929 0.869629 0.107422 7.48805 0.107422 15.6523C0.107422 23.8165 6.79929 30.4349 15.0541 30.4349Z" fill="white"/>
<path d="M22.2776 22.5866L16.5489 14.4204L22.436 7.663H21.0299L15.9216 13.5261L12.5483 8.71629L11.809 7.6626H7.09277L7.83207 8.71629L13.3088 16.5249L7.11069 23.6399H8.516L13.9357 17.4184L17.561 22.5862L18.2994 23.6399H23.0157L22.2772 22.5862L22.2776 22.5866ZM18.8584 22.5866L14.6551 16.5942L14.0281 15.7008L9.1295 8.71669H11.2529L15.2043 14.3503L15.8312 15.2446L20.9818 22.587H18.8584V22.5866Z" fill="#0C0C0C"/>
</svg>
