<svg width="65" height="65" viewBox="0 0 65 65" fill="none" xmlns="http://www.w3.org/2000/svg">
<path d="M30.2822 50.9424C21.4607 50.9424 14.2822 43.765 14.2822 34.9424C14.2822 26.1198 21.4607 18.9424 30.2822 18.9424C39.1037 18.9424 46.2822 26.1198 46.2822 34.9424C46.2822 43.765 39.1037 50.9424 30.2822 50.9424ZM30.2822 23.5138C23.981 23.5138 18.8537 28.6411 18.8537 34.9424C18.8537 41.2436 23.981 46.371 30.2822 46.371C36.5835 46.371 41.7108 41.2436 41.7108 34.9424C41.7108 28.6411 36.5835 23.5138 30.2822 23.5138Z" fill="white"/>
<path d="M64.5686 25.7991H59.9972V5.22768H39.4258V0.65625H59.9972C62.5172 0.65625 64.5686 2.70654 64.5686 5.22768V25.7991Z" fill="white"/>
<path d="M30.2826 64.6561C13.8986 64.6561 0.568359 51.327 0.568359 34.9418C0.568359 18.5567 13.8986 5.22754 30.2826 5.22754V9.79897C16.4189 9.79897 5.13979 21.0781 5.13979 34.9418C5.13979 48.8056 16.4189 60.0847 30.2826 60.0847C44.1464 60.0847 55.4255 48.8056 55.4255 34.9418V32.6561H59.9969V34.9418C59.9969 51.327 46.6666 64.6561 30.2826 64.6561Z" fill="white"/>
</svg>
