<svg width="65" height="65" viewBox="0 0 65 65" fill="none" xmlns="http://www.w3.org/2000/svg">
<path d="M50.8549 64.6561C48.1425 64.6561 45.491 63.8518 43.2357 62.3448C40.9804 60.8379 39.2226 58.696 38.1846 56.1901C37.1466 53.6841 36.875 50.9266 37.4041 48.2663C37.9333 45.606 39.2395 43.1623 41.1575 41.2444C43.0754 39.3264 45.5191 38.0202 48.1794 37.4911C50.8397 36.9619 53.5972 37.2335 56.1031 38.2715C58.6091 39.3095 60.751 41.0673 62.2579 43.3226C63.7649 45.5779 64.5692 48.2294 64.5692 50.9418C64.5651 54.5778 63.119 58.0638 60.5479 60.6348C57.9769 63.2059 54.4909 64.6521 50.8549 64.6561ZM50.8549 41.799C49.0466 41.799 47.279 42.3352 45.7754 43.3398C44.2719 44.3445 43.1 45.7724 42.408 47.443C41.716 49.1137 41.535 50.952 41.8877 52.7255C42.2405 54.4991 43.1113 56.1282 44.3899 57.4068C45.6686 58.6855 47.2977 59.5562 49.0712 59.909C50.8448 60.2618 52.6831 60.0807 54.3537 59.3887C56.0244 58.6967 57.4523 57.5249 58.4569 56.0213C59.4616 54.5178 59.9978 52.7501 59.9978 50.9418C59.995 48.5178 59.0309 46.1939 57.3169 44.4799C55.6029 42.7658 53.2789 41.8017 50.8549 41.799Z" fill="white"/>
<path d="M23.4261 31.7195L17.5061 25.7995L14.2832 29.0224L23.4261 38.1652L39.4261 22.1652L36.2032 18.9424L23.4261 31.7195Z" fill="white"/>
<path d="M27.9969 50.942C23.4762 50.942 19.057 49.6014 15.2982 47.0898C11.5394 44.5783 8.6097 41.0085 6.8797 36.8319C5.14969 32.6553 4.69704 28.0595 5.57899 23.6256C6.46094 19.1918 8.63787 15.119 11.8345 11.9224C15.0311 8.72576 19.1039 6.54883 23.5377 5.66688C27.9716 4.78494 32.5674 5.23758 36.744 6.96759C40.9206 8.69759 44.4904 11.6272 47.002 15.3861C49.5135 19.1449 50.8541 23.5641 50.8541 28.0848H55.4255C55.4255 22.66 53.8168 17.3569 50.803 12.8463C47.7891 8.33573 43.5053 4.82014 38.4934 2.74414C33.4815 0.668134 27.9665 0.124957 22.6459 1.18329C17.3253 2.24163 12.438 4.85395 8.60201 8.6899C4.76606 12.5259 2.15374 17.4132 1.0954 22.7338C0.0370666 28.0544 0.580244 33.5694 2.65625 38.5813C4.73225 43.5932 8.24784 47.877 12.7584 50.8908C17.269 53.9047 22.5721 55.5134 27.9969 55.5134V50.942Z" fill="white"/>
</svg>
